<svg width="32" height="30" viewBox="0 0 32 30" fill="none" xmlns="http://www.w3.org/2000/svg">
<path d="M16 0C9.69829 0 4.57143 5.17615 4.57143 11.5385C4.57143 17.9008 9.69829 23.0769 16 23.0769C22.3017 23.0769 27.4286 17.9008 27.4286 11.5385C27.4286 5.17615 22.3017 0 16 0ZM16 2.30769C21.0411 2.30769 25.1429 6.44885 25.1429 11.5385C25.1429 16.6281 21.0411 20.7692 16 20.7692C10.9589 20.7692 6.85714 16.6281 6.85714 11.5385C6.85714 6.44885 10.9589 2.30769 16 2.30769ZM14.8571 4.61538V5.98783C14.6914 6.04841 14.5304 6.12244 14.3772 6.20643C14.2241 6.29042 14.0779 6.38519 13.9397 6.49038C13.8015 6.59558 13.6723 6.71099 13.5513 6.83519C13.3094 7.08358 13.1033 7.3669 12.9442 7.67803C12.8646 7.8336 12.7964 7.99687 12.7411 8.16481C12.6304 8.50069 12.5714 8.85865 12.5714 9.23077C12.5714 9.46731 12.5967 9.69862 12.6429 9.92263C12.7352 10.3706 12.9149 10.7889 13.1629 11.1576C13.287 11.3419 13.4269 11.5142 13.5826 11.6714C13.894 11.9858 14.2648 12.2407 14.6741 12.4174C15.0834 12.5941 15.5314 12.6923 16 12.6923C16.1629 12.6923 16.3154 12.7234 16.4531 12.7802C16.5908 12.837 16.7126 12.9205 16.8147 13.0236C16.9169 13.1267 16.9996 13.2497 17.0558 13.3887C17.1121 13.5277 17.1429 13.6817 17.1429 13.8462C17.1429 14.3394 16.8662 14.7417 16.4531 14.9121C16.3154 14.9689 16.1629 15 16 15C15.8371 15 15.6846 14.9689 15.5469 14.9121C15.4092 14.8553 15.2874 14.7718 15.1853 14.6687C14.981 14.4625 14.8571 14.175 14.8571 13.8462H12.5714C12.5714 14.0322 12.5872 14.2157 12.6161 14.3938C12.6449 14.5719 12.6857 14.7442 12.7411 14.9121C12.7964 15.08 12.8646 15.2433 12.9442 15.3989C13.0238 15.5545 13.1151 15.7019 13.2165 15.8428C13.3179 15.9838 13.4304 16.1175 13.5513 16.2417C13.6723 16.3659 13.8015 16.4813 13.9397 16.5865C14.0779 16.6917 14.2241 16.7865 14.3772 16.8705C14.5304 16.9545 14.6914 17.0285 14.8571 17.0891V18.4615H17.1429V17.0891C18.3029 16.6651 19.1821 15.6405 19.3839 14.3938C19.4128 14.2157 19.4286 14.0322 19.4286 13.8462C19.4286 13.6096 19.4033 13.3783 19.3571 13.1543C19.311 12.9303 19.2437 12.7141 19.1562 12.5075C19.0688 12.3009 18.9611 12.1037 18.8371 11.9193C18.713 11.735 18.5731 11.5627 18.4174 11.4055C18.2617 11.2483 18.0911 11.107 17.9085 10.9818C17.7259 10.8566 17.5305 10.7479 17.3259 10.6596C17.1213 10.5712 16.9071 10.5033 16.6853 10.4567C16.4634 10.4101 16.2343 10.3846 16 10.3846C15.8371 10.3846 15.6846 10.3535 15.5469 10.2967C15.4092 10.2399 15.2874 10.1565 15.1853 10.0533C15.0831 9.95021 15.0004 9.82725 14.9442 9.68825C14.8879 9.54925 14.8571 9.39519 14.8571 9.23077C14.8571 9.06635 14.8879 8.91229 14.9442 8.77329C15.0004 8.63428 15.0831 8.51133 15.1853 8.4082C15.2874 8.30508 15.4092 8.2216 15.5469 8.16481C15.6846 8.10802 15.8371 8.07692 16 8.07692C16.6514 8.07692 17.1429 8.57308 17.1429 9.23077H19.4286C19.4286 9.04471 19.4128 8.86125 19.3839 8.68314C19.3551 8.50504 19.3143 8.33275 19.2589 8.16481C18.9268 7.15718 18.1371 6.35129 17.1429 5.98783V4.61538H14.8571ZM0 20.7692V30H2.28571V23.0769H8.43527C7.4627 22.425 6.58409 21.6438 5.8058 20.7692H0ZM26.1942 20.7692C25.4159 21.6438 24.5373 22.425 23.5647 23.0769H29.7143V30H32V20.7692H26.1942ZM4.57143 25.3846V27.6923H27.4286V25.3846H4.57143Z" fill="black"/>
</svg>
