<svg width="81" height="34" viewBox="0 0 81 34" fill="none" xmlns="http://www.w3.org/2000/svg">
<g filter="url(#filter0_d_1489_534)">
<rect x="4" width="73" height="26" rx="4" fill="#40BD05"/>
<path d="M15.7263 15.9521H12.276V5.77033H15.7959C16.8068 5.77033 17.6752 5.97417 18.401 6.38184C19.1302 6.78619 19.6903 7.36787 20.0814 8.12686C20.4725 8.88586 20.6681 9.794 20.6681 10.8513C20.6681 11.9119 20.4709 12.8234 20.0765 13.5857C19.6854 14.348 19.1203 14.933 18.3811 15.3406C17.6454 15.7483 16.7604 15.9521 15.7263 15.9521ZM14.1205 14.3563H15.6368C16.3461 14.3563 16.9377 14.227 17.4117 13.9685C17.8856 13.7066 18.2419 13.3172 18.4806 12.8002C18.7192 12.2798 18.8385 11.6302 18.8385 10.8513C18.8385 10.0724 18.7192 9.42611 18.4806 8.91238C18.2419 8.39533 17.889 8.0092 17.4216 7.754C16.9576 7.49547 16.3809 7.36621 15.6915 7.36621H14.1205V14.3563ZM22.341 15.9521V8.31578H24.1407V15.9521H22.341ZM23.2458 7.23198C22.9608 7.23198 22.7155 7.13752 22.5101 6.9486C22.3046 6.75636 22.2018 6.52601 22.2018 6.25755C22.2018 5.98577 22.3046 5.75542 22.5101 5.56649C22.7155 5.37426 22.9608 5.27814 23.2458 5.27814C23.5342 5.27814 23.7795 5.37426 23.9816 5.56649C24.1871 5.75542 24.2899 5.98577 24.2899 6.25755C24.2899 6.52601 24.1871 6.75636 23.9816 6.9486C23.7795 7.13752 23.5342 7.23198 23.2458 7.23198ZM29.8046 8.31578V9.70783H25.4147V8.31578H29.8046ZM26.4985 6.48624H28.2982V13.6553C28.2982 13.8972 28.3347 14.0828 28.4076 14.2121C28.4838 14.338 28.5833 14.4242 28.7059 14.4706C28.8285 14.517 28.9644 14.5402 29.1136 14.5402C29.2263 14.5402 29.329 14.5319 29.4218 14.5154C29.5179 14.4988 29.5908 14.4839 29.6406 14.4706L29.9438 15.8776C29.8477 15.9107 29.7102 15.9472 29.5312 15.9869C29.3555 16.0267 29.1401 16.0499 28.8849 16.0566C28.4341 16.0698 28.0281 16.0019 27.6668 15.8527C27.3056 15.7003 27.0189 15.4649 26.8068 15.1468C26.5979 14.8286 26.4952 14.4308 26.4985 13.9536V6.48624ZM34.6084 16.1013C33.8428 16.1013 33.1816 15.9422 32.6248 15.624C32.0713 15.3025 31.6454 14.8485 31.3471 14.2618C31.0488 13.6718 30.8996 12.9775 30.8996 12.1787C30.8996 11.3932 31.0488 10.7038 31.3471 10.1105C31.6487 9.51394 32.0696 9.04992 32.6098 8.71848C33.1501 8.38373 33.7848 8.21635 34.514 8.21635C34.9846 8.21635 35.4287 8.29258 35.8463 8.44505C36.2673 8.59419 36.6385 8.8262 36.96 9.14107C37.2848 9.45594 37.54 9.85698 37.7256 10.3442C37.9112 10.8281 38.004 11.4048 38.004 12.0743V12.6262H31.7448V11.4131H36.2789C36.2756 11.0684 36.201 10.7618 36.0552 10.4933C35.9093 10.2216 35.7055 10.0078 35.4436 9.85201C35.1851 9.69623 34.8835 9.61834 34.5388 9.61834C34.1709 9.61834 33.8478 9.70783 33.5694 9.88681C33.2909 10.0625 33.0739 10.2945 32.9181 10.5828C32.7656 10.8679 32.6877 11.1811 32.6844 11.5225V12.5814C32.6844 13.0255 32.7656 13.4067 32.928 13.7249C33.0904 14.0397 33.3175 14.2817 33.6091 14.4507C33.9008 14.6164 34.2422 14.6993 34.6333 14.6993C34.8951 14.6993 35.1321 14.6628 35.3442 14.5899C35.5563 14.5137 35.7403 14.4027 35.8961 14.2568C36.0518 14.111 36.1695 13.9304 36.249 13.7149L37.9294 13.9039C37.8234 14.348 37.6212 14.7358 37.3229 15.0672C37.0279 15.3953 36.6501 15.6505 36.1894 15.8328C35.7287 16.0118 35.2017 16.1013 34.6084 16.1013ZM39.5266 15.9521V8.31578H41.2716V9.58851H41.3511C41.4903 9.1477 41.729 8.80797 42.067 8.56934C42.4084 8.32739 42.7979 8.20641 43.2354 8.20641C43.3348 8.20641 43.4458 8.21138 43.5685 8.22132C43.6944 8.22795 43.7988 8.23955 43.8817 8.25613V9.91167C43.8054 9.88515 43.6845 9.86195 43.5188 9.84206C43.3563 9.81886 43.1989 9.80726 43.0465 9.80726C42.7183 9.80726 42.4233 9.87852 42.1615 10.021C41.903 10.1602 41.6992 10.3541 41.55 10.6027C41.4009 10.8513 41.3263 11.138 41.3263 11.4628V15.9521H39.5266ZM45.0773 15.9521V8.31578H46.8771V15.9521H45.0773ZM45.9822 7.23198C45.6971 7.23198 45.4519 7.13752 45.2464 6.9486C45.0409 6.75636 44.9381 6.52601 44.9381 6.25755C44.9381 5.98577 45.0409 5.75542 45.2464 5.56649C45.4519 5.37426 45.6971 5.27814 45.9822 5.27814C46.2705 5.27814 46.5158 5.37426 46.718 5.56649C46.9235 5.75542 47.0262 5.98577 47.0262 6.25755C47.0262 6.52601 46.9235 6.75636 46.718 6.9486C46.5158 7.13752 46.2705 7.23198 45.9822 7.23198ZM48.7277 15.9521V8.31578H50.4479V9.61337H50.5374C50.6965 9.17587 50.96 8.83449 51.3279 8.58922C51.6958 8.34064 52.1349 8.21635 52.6454 8.21635C53.1624 8.21635 53.5982 8.3423 53.9529 8.59419C54.3108 8.84277 54.5627 9.1825 54.7086 9.61337H54.7881C54.9571 9.18913 55.2422 8.85106 55.6432 8.59917C56.0476 8.34396 56.5265 8.21635 57.08 8.21635C57.7827 8.21635 58.3561 8.43842 58.8002 8.88255C59.2443 9.32667 59.4664 9.97464 59.4664 10.8264V15.9521H57.6617V11.1048C57.6617 10.6309 57.5357 10.2845 57.2838 10.0658C57.032 9.84372 56.7237 9.73269 56.3591 9.73269C55.9249 9.73269 55.5852 9.86858 55.34 10.1404C55.098 10.4088 54.977 10.7585 54.977 11.1894V15.9521H53.2121V11.0303C53.2121 10.6359 53.0928 10.321 52.8542 10.0857C52.6188 9.85035 52.3106 9.73269 51.9294 9.73269C51.6709 9.73269 51.4356 9.79898 51.2235 9.93155C51.0114 10.0608 50.8423 10.2448 50.7164 10.4834C50.5904 10.7187 50.5275 10.9938 50.5275 11.3087V15.9521H48.7277ZM63.4896 16.1063C63.0057 16.1063 62.5699 16.0201 62.1821 15.8477C61.7976 15.6721 61.4927 15.4136 61.2673 15.0722C61.0453 14.7308 60.9342 14.3099 60.9342 13.8094C60.9342 13.3785 61.0138 13.0222 61.1729 12.7405C61.332 12.4588 61.5491 12.2334 61.8242 12.0644C62.0992 11.8953 62.4091 11.7677 62.7538 11.6816C63.1019 11.5921 63.4615 11.5274 63.8327 11.4877C64.2801 11.4413 64.643 11.3998 64.9215 11.3634C65.1999 11.3236 65.402 11.2639 65.528 11.1844C65.6572 11.1015 65.7219 10.9739 65.7219 10.8016V10.7718C65.7219 10.3972 65.6108 10.1072 65.3888 9.90172C65.1667 9.69623 64.8469 9.59348 64.4293 9.59348C63.9885 9.59348 63.6388 9.6896 63.3803 9.88184C63.1251 10.0741 62.9527 10.3011 62.8632 10.5629L61.1828 10.3243C61.3154 9.86029 61.5341 9.47251 61.8391 9.16095C62.144 8.84609 62.5169 8.61077 62.9577 8.45499C63.3985 8.2959 63.8857 8.21635 64.4193 8.21635C64.7872 8.21635 65.1535 8.25944 65.518 8.34561C65.8826 8.43179 66.2157 8.57431 66.5173 8.77317C66.8189 8.96872 67.0609 9.23553 67.2432 9.5736C67.4288 9.91167 67.5216 10.3343 67.5216 10.8414V15.9521H65.7915V14.9031H65.7318C65.6224 15.1153 65.4683 15.3141 65.2695 15.4997C65.0739 15.682 64.827 15.8295 64.5287 15.9422C64.2337 16.0516 63.8874 16.1063 63.4896 16.1063ZM63.957 14.7838C64.3182 14.7838 64.6314 14.7126 64.8966 14.57C65.1617 14.4242 65.3656 14.232 65.5081 13.9933C65.6539 13.7547 65.7269 13.4945 65.7269 13.2128V12.3129C65.6705 12.3593 65.5744 12.4024 65.4385 12.4422C65.3059 12.482 65.1568 12.5168 64.9911 12.5466C64.8253 12.5764 64.6613 12.603 64.4989 12.6262C64.3365 12.6494 64.1956 12.6692 64.0763 12.6858C63.8078 12.7223 63.5675 12.7819 63.3554 12.8648C63.1433 12.9477 62.9759 13.0637 62.8533 13.2128C62.7306 13.3586 62.6693 13.5476 62.6693 13.7796C62.6693 14.111 62.7903 14.3612 63.0322 14.5303C63.2742 14.6993 63.5824 14.7838 63.957 14.7838Z" fill="white"/>
</g>
<defs>
<filter id="filter0_d_1489_534" x="0" y="0" width="81" height="34" filterUnits="userSpaceOnUse" color-interpolation-filters="sRGB">
<feFlood flood-opacity="0" result="BackgroundImageFix"/>
<feColorMatrix in="SourceAlpha" type="matrix" values="0 0 0 0 0 0 0 0 0 0 0 0 0 0 0 0 0 0 127 0" result="hardAlpha"/>
<feOffset dy="4"/>
<feGaussianBlur stdDeviation="2"/>
<feComposite in2="hardAlpha" operator="out"/>
<feColorMatrix type="matrix" values="0 0 0 0 0 0 0 0 0 0 0 0 0 0 0 0 0 0 0.25 0"/>
<feBlend mode="normal" in2="BackgroundImageFix" result="effect1_dropShadow_1489_534"/>
<feBlend mode="normal" in="SourceGraphic" in2="effect1_dropShadow_1489_534" result="shape"/>
</filter>
</defs>
</svg>
