<svg width="102" height="99" viewBox="0 0 102 99" fill="none" xmlns="http://www.w3.org/2000/svg">
<g id="&#240;&#159;&#166;&#134; illustration &#34;Notes&#34;">
<path id="Vector" d="M25.2618 97.5147C24.8324 97.5318 24.4038 97.4635 24.0007 97.3138C23.5976 97.1641 23.2278 96.936 22.9127 96.6424C22.5975 96.3489 22.3431 95.9958 22.1641 95.6033C21.985 95.2108 21.8849 94.7866 21.8693 94.3551L18.8511 17.1545C18.8341 16.7228 18.902 16.2919 19.051 15.8866C19.1999 15.4813 19.4269 15.1094 19.719 14.7923C20.0111 14.4752 20.3625 14.219 20.7533 14.0385C21.144 13.858 21.5663 13.7566 21.9961 13.7402L95.0005 10.8838C95.4303 10.8668 95.8592 10.935 96.2626 11.0846C96.6661 11.2343 97.0362 11.4623 97.3518 11.7558C97.6675 12.0492 97.9225 12.4023 98.1022 12.7949C98.2819 13.1874 98.3827 13.6117 98.3991 14.0434L101.393 90.6376C101.432 91.6726 101.061 92.6808 100.36 93.4406C99.6592 94.2003 98.6868 94.6492 97.6566 94.6887L25.2618 97.5147Z" fill="#68E1FD"/>
<path id="Vector_2" d="M25.1351 98.1273C24.1325 98.1279 23.1687 97.7376 22.447 97.0385C21.7252 96.3393 21.3017 95.3861 21.2657 94.3794L18.2475 17.1788C18.2083 16.1465 18.5785 15.1406 19.2768 14.3822C19.9751 13.6239 20.9445 13.1748 21.972 13.1338L95.0006 10.2835C95.5093 10.2624 96.0172 10.3424 96.4951 10.5188C96.973 10.6953 97.4115 10.9647 97.7856 11.3118C98.1596 11.6588 98.4618 12.0766 98.6748 12.5412C98.8879 13.0058 99.0075 13.5081 99.0269 14.0192L101.997 90.6377C102.041 91.8331 101.611 92.9973 100.802 93.875C99.9931 94.7526 98.8706 95.2721 97.6808 95.3194L25.286 98.1515L25.1351 98.1273ZM95.1576 11.4904H95.0489L22.0444 14.3467C21.3372 14.3751 20.67 14.6841 20.1891 15.2059C19.7082 15.7276 19.4528 16.4197 19.4789 17.1303L22.467 94.337C22.4802 94.6889 22.5628 95.0346 22.7099 95.3541C22.857 95.6737 23.0658 95.9608 23.3241 96.1988C23.8462 96.6798 24.5359 96.9347 25.2437 96.9083L97.6385 94.0762C98.5075 94.0415 99.3273 93.6619 99.9181 93.0207C100.509 92.3794 100.822 91.529 100.79 90.6559L97.8196 14.0678C97.7931 13.3759 97.5012 12.7212 97.005 12.2408C96.5087 11.7603 95.8467 11.4914 95.1576 11.4904Z" fill="#093F68"/>
<path id="Vector_3" d="M79.4991 90.8256H17.4085C16.5407 90.8256 15.7086 90.4793 15.095 89.8629C14.4814 89.2465 14.1367 88.4104 14.1367 87.5387V10.2774C14.1359 9.84555 14.22 9.41777 14.3842 9.01862C14.5483 8.61947 14.7893 8.2568 15.0932 7.95142C15.3972 7.64604 15.7582 7.40396 16.1555 7.23906C16.5528 7.07416 16.9786 6.98969 17.4085 6.99048H90.4492C90.8788 6.99048 91.3043 7.0755 91.7012 7.24069C92.0982 7.40587 92.4588 7.64798 92.7626 7.9532C93.0665 8.25843 93.3074 8.62078 93.4719 9.01957C93.6363 9.41836 93.7209 9.84578 93.7209 10.2774V75.8039L79.4991 90.8256Z" fill="white"/>
<path id="Vector_4" d="M79.4991 91.4321H17.4084C16.3805 91.4305 15.3951 91.02 14.6677 90.2903C13.9403 89.5607 13.5302 88.5713 13.527 87.5387V10.2774C13.5302 9.24476 13.9403 8.25541 14.6677 7.52578C15.3951 6.79615 16.3805 6.38563 17.4084 6.38403H90.4491C91.4765 6.38564 92.4612 6.79635 93.1877 7.52615C93.9141 8.25595 94.3229 9.24532 94.3245 10.2774V75.8039C94.3239 75.9601 94.2633 76.11 94.1555 76.2224L79.9337 91.2441C79.8776 91.3032 79.8102 91.3503 79.7355 91.3826C79.6608 91.4149 79.5804 91.4317 79.4991 91.4321ZM17.4084 7.59693C16.7002 7.59692 16.021 7.87914 15.5197 8.38166C15.0183 8.88417 14.7359 9.56595 14.7343 10.2774V87.5387C14.7375 88.2497 15.0204 88.9305 15.5214 89.4327C16.0224 89.9349 16.7007 90.2176 17.4084 90.2192H79.2395L93.1233 75.5614V10.2774C93.1217 9.567 92.84 8.88614 92.34 8.38379C91.84 7.88145 91.1623 7.59853 90.4552 7.59693H17.4084Z" fill="#093F68"/>
<path id="Vector_5" d="M79.4992 90.8256V79.2304C79.5008 78.3993 79.8301 77.6028 80.415 77.0151C80.9999 76.4275 81.7928 76.0966 82.62 76.095H93.7451L79.4992 90.8256Z" fill="#FFBC0E"/>
<g id="Group">
<path id="Vector_6" d="M79.499 91.4321C79.4227 91.4303 79.3473 91.416 79.2756 91.3897C79.1633 91.3447 79.067 91.267 78.9992 91.1664C78.9314 91.0658 78.8952 90.9471 78.8953 90.8257V79.2304C78.8969 78.2385 79.2898 77.2877 79.988 76.5864C80.6861 75.885 81.6325 75.4903 82.6198 75.4887H93.7449C93.8641 75.488 93.9808 75.5227 94.0804 75.5885C94.1799 75.6544 94.2578 75.7483 94.3043 75.8586C94.3508 75.9688 94.3638 76.0904 94.3415 76.2081C94.3193 76.3257 94.263 76.4341 94.1795 76.5196L79.9336 91.2441C79.8775 91.3033 79.8101 91.3504 79.7354 91.3827C79.6607 91.415 79.5803 91.4318 79.499 91.4321ZM82.6198 76.6894C81.9522 76.6894 81.3119 76.9559 80.8399 77.4301C80.3678 77.9044 80.1026 78.5476 80.1026 79.2183V89.3156L92.3143 76.6894H82.6198Z" fill="#093F68"/>
<path id="Vector_7" d="M79.499 26.5846H44.4878C44.3277 26.5846 44.1741 26.5207 44.0609 26.407C43.9477 26.2932 43.8841 26.139 43.8841 25.9782C43.8841 25.8173 43.9477 25.6631 44.0609 25.5493C44.1741 25.4356 44.3277 25.3717 44.4878 25.3717H79.499C79.6591 25.3717 79.8126 25.4356 79.9259 25.5493C80.0391 25.6631 80.1027 25.8173 80.1027 25.9782C80.1027 26.139 80.0391 26.2932 79.9259 26.407C79.8126 26.5207 79.6591 26.5846 79.499 26.5846Z" fill="#093F68"/>
<path id="Vector_8" d="M79.499 36.1969H28.8836C28.7235 36.1969 28.57 36.133 28.4568 36.0193C28.3436 35.9055 28.28 35.7513 28.28 35.5905C28.28 35.4296 28.3436 35.2754 28.4568 35.1616C28.57 35.0479 28.7235 34.984 28.8836 34.984H79.499C79.6591 34.984 79.8126 35.0479 79.9258 35.1616C80.039 35.2754 80.1026 35.4296 80.1026 35.5905C80.1026 35.7513 80.039 35.9055 79.9258 36.0193C79.8126 36.133 79.6591 36.1969 79.499 36.1969Z" fill="#093F68"/>
<path id="Vector_9" d="M79.499 45.8152H28.8836C28.7235 45.8152 28.57 45.7514 28.4568 45.6376C28.3436 45.5239 28.28 45.3696 28.28 45.2088C28.28 45.048 28.3436 44.8937 28.4568 44.78C28.57 44.6662 28.7235 44.6024 28.8836 44.6024H79.499C79.6591 44.6024 79.8126 44.6662 79.9258 44.78C80.039 44.8937 80.1026 45.048 80.1026 45.2088C80.1026 45.3696 80.039 45.5239 79.9258 45.6376C79.8126 45.7514 79.6591 45.8152 79.499 45.8152Z" fill="#093F68"/>
<path id="Vector_10" d="M79.499 55.4273H28.8836C28.7235 55.4273 28.57 55.3634 28.4568 55.2497C28.3436 55.136 28.28 54.9817 28.28 54.8209C28.28 54.66 28.3436 54.5058 28.4568 54.392C28.57 54.2783 28.7235 54.2144 28.8836 54.2144H79.499C79.6591 54.2144 79.8126 54.2783 79.9258 54.392C80.039 54.5058 80.1026 54.66 80.1026 54.8209C80.1026 54.9817 80.039 55.136 79.9258 55.2497C79.8126 55.3634 79.6591 55.4273 79.499 55.4273Z" fill="#093F68"/>
<path id="Vector_11" d="M79.499 65.0456H28.8836C28.7235 65.0456 28.57 64.9817 28.4568 64.868C28.3436 64.7542 28.28 64.6 28.28 64.4391C28.28 64.2783 28.3436 64.1241 28.4568 64.0103C28.57 63.8966 28.7235 63.8327 28.8836 63.8327H79.499C79.6591 63.8327 79.8126 63.8966 79.9258 64.0103C80.039 64.1241 80.1026 64.2783 80.1026 64.4391C80.1026 64.6 80.039 64.7542 79.9258 64.868C79.8126 64.9817 79.6591 65.0456 79.499 65.0456Z" fill="#093F68"/>
<path id="Vector_12" d="M60.11 74.6638H28.8836C28.7235 74.6638 28.57 74.5999 28.4568 74.4862C28.3436 74.3725 28.28 74.2182 28.28 74.0574C28.28 73.8965 28.3436 73.7423 28.4568 73.6286C28.57 73.5148 28.7235 73.4509 28.8836 73.4509H60.11C60.2701 73.4509 60.4237 73.5148 60.5369 73.6286C60.6501 73.7423 60.7137 73.8965 60.7137 74.0574C60.7137 74.2182 60.6501 74.3725 60.5369 74.4862C60.4237 74.5999 60.2701 74.6638 60.11 74.6638Z" fill="#093F68"/>
<path id="Vector_13" d="M34.6966 18.1127C33.9148 18.1517 33.1459 17.9009 32.5361 17.4078C31.9262 16.9148 31.5179 16.2139 31.3886 15.4382L29.4811 4.61923C29.3854 4.15589 29.3966 3.67669 29.5137 3.21835C29.6309 2.76002 29.8511 2.33474 30.1572 1.97512C30.7345 1.33839 31.5053 0.911558 32.3494 0.761258C33.1936 0.610958 34.0635 0.745642 34.8234 1.14429C35.2336 1.37669 35.5856 1.70022 35.8524 2.09016C36.1191 2.4801 36.2937 2.92614 36.3627 3.3942L36.8939 6.42644C36.9078 6.50489 36.9062 6.58532 36.8891 6.66314C36.8721 6.74096 36.8399 6.81464 36.7945 6.87997C36.7491 6.9453 36.6913 7.001 36.6245 7.04389C36.5576 7.08678 36.483 7.11601 36.4049 7.12992C36.3268 7.14389 36.2468 7.14226 36.1693 7.12513C36.0918 7.108 36.0185 7.07571 35.9535 7.03009C35.8884 6.98447 35.833 6.92642 35.7903 6.85926C35.7476 6.7921 35.7185 6.71715 35.7047 6.63869L35.1735 3.60646C35.1349 3.31495 35.0298 3.03632 34.8665 2.79228C34.7032 2.54824 34.486 2.34538 34.2318 2.1995C33.7152 1.94001 33.129 1.85474 32.5603 1.95634C31.9916 2.05793 31.4707 2.34098 31.0747 2.7635C30.8857 2.98756 30.7509 3.25249 30.6807 3.5376C30.6106 3.8227 30.607 4.12025 30.6703 4.40697L32.5718 15.226C32.8253 16.6451 34.0688 17.0453 35.1856 16.8816C36.3023 16.7178 37.3285 15.8445 37.081 14.4558L36.6886 12.2423C36.6606 12.0814 36.6973 11.916 36.7907 11.7824C36.8841 11.6487 37.0265 11.5578 37.1866 11.5297C37.3467 11.5015 37.5114 11.5384 37.6444 11.6323C37.7774 11.7261 37.8679 11.8692 37.8959 12.03L38.2822 14.2435C38.6625 16.3782 37.1232 17.8034 35.4149 18.1066C35.176 18.1278 34.9358 18.1299 34.6966 18.1127Z" fill="#093F68"/>
</g>
<path id="Vector_14" d="M22.8233 71.5566L16.1033 74.2734L1.00505 36.5789C0.738492 35.9134 0.745996 35.1688 1.0259 34.5089C1.30582 33.8489 1.8352 33.3278 2.49761 33.06L4.21682 32.3649C4.87923 32.0971 5.62039 32.1047 6.27727 32.3859C6.93414 32.6671 7.45292 33.199 7.71948 33.8644L22.8177 71.5589L22.8233 71.5566Z" fill="#F56132"/>
<path id="Vector_15" d="M16.1107 74.9003C16.0296 74.9018 15.9492 74.8852 15.8752 74.8518C15.7277 74.7903 15.6105 74.6725 15.5493 74.5243L0.458207 36.8458C0.292484 36.444 0.207184 36.0133 0.207184 35.5783C0.207184 35.1434 0.292484 34.7127 0.458207 34.3109C0.627243 33.9093 0.874541 33.5457 1.18555 33.2416C1.49655 32.9375 1.86498 32.6989 2.26913 32.54L3.98348 31.8426C4.7931 31.516 5.69839 31.5239 6.50224 31.8646C7.30608 32.2054 7.94338 32.8514 8.27537 33.662L23.3664 71.3344C23.4262 71.4832 23.4247 71.6497 23.3625 71.7975C23.3003 71.9453 23.1823 72.0622 23.0344 72.1228L16.34 74.87C16.2662 74.8949 16.1883 74.9052 16.1107 74.9003ZM5.24509 32.819C4.97824 32.8188 4.71385 32.8703 4.46639 32.9706L2.76412 33.662C2.25092 33.8719 1.84145 34.2776 1.62536 34.7903C1.40927 35.3029 1.40416 35.8806 1.61116 36.397L16.4789 73.5055L22.0686 71.2434L7.17071 34.135C7.01462 33.7469 6.74688 33.4144 6.40172 33.18C6.05656 32.9456 5.64965 32.8199 5.23301 32.819H5.24509Z" fill="#093F68"/>
<path id="Vector_16" d="M16.1168 74.2999L22.8293 71.5831L23.5476 80.4372L23.8253 83.8151L21.6944 81.1831L16.1168 74.2999Z" fill="white"/>
<path id="Vector_17" d="M23.8252 84.4215C23.7361 84.4209 23.6481 84.4004 23.5678 84.3616C23.4874 84.3228 23.4166 84.2666 23.3604 84.1971L15.6459 74.6819C15.586 74.6083 15.5442 74.5216 15.5238 74.4288C15.5035 74.336 15.5051 74.2397 15.5286 74.1476C15.5521 74.0555 15.5968 73.9703 15.6591 73.8988C15.7214 73.8273 15.7996 73.7715 15.8873 73.7359L22.6059 71.019C22.693 70.9847 22.7869 70.9712 22.8802 70.9796C22.9734 70.988 23.0634 71.0181 23.1431 71.0675C23.2246 71.1169 23.2934 71.1849 23.3437 71.2661C23.3941 71.3472 23.4246 71.4392 23.4329 71.5345L24.4289 83.7665C24.4378 83.8951 24.4058 84.0232 24.3374 84.1322C24.2691 84.2412 24.1679 84.3256 24.0486 84.3729C23.9782 84.4042 23.9022 84.4207 23.8252 84.4215ZM17.1007 74.5546L23.0646 81.9168L22.292 72.4441L17.1007 74.5546Z" fill="#093F68"/>
<path id="Vector_18" d="M21.6943 81.183L23.5475 80.4371L23.8252 83.815L21.6943 81.183Z" fill="#093F68"/>
<path id="Vector_19" d="M23.8253 84.4215C23.7361 84.421 23.6482 84.4005 23.5678 84.3617C23.4874 84.3229 23.4166 84.2667 23.3605 84.1972L21.2236 81.5712C21.1633 81.4968 21.1215 81.4091 21.1016 81.3152C21.0816 81.2214 21.0841 81.1242 21.1089 81.0315C21.1335 80.9401 21.179 80.8557 21.2419 80.7851C21.3048 80.7146 21.3833 80.6598 21.4711 80.6252L23.3242 79.8732C23.4117 79.8378 23.5062 79.8234 23.6002 79.8313C23.6942 79.8392 23.785 79.8691 23.8654 79.9187C23.9458 79.9682 24.0136 80.036 24.0632 80.1165C24.1128 80.1971 24.143 80.2882 24.1512 80.3826L24.4289 83.7666C24.4379 83.8951 24.4059 84.0232 24.3375 84.1323C24.2691 84.2413 24.1679 84.3257 24.0486 84.373C23.9782 84.4042 23.9022 84.4208 23.8253 84.4215ZM22.6783 81.4378L23.0647 81.9169L23.0164 81.3105L22.6783 81.4378Z" fill="#093F68"/>
</g>
</svg>
