<svg width="88" height="70" viewBox="0 0 88 70" fill="none" xmlns="http://www.w3.org/2000/svg">
<path d="M17.495 13.1197C21.1166 13.1197 24.0549 10.1815 24.0549 6.55986C24.0549 2.93827 21.1166 0 17.495 0C13.8734 0 10.9351 2.93827 10.9351 6.55986C10.9351 10.1815 13.8734 13.1197 17.495 13.1197ZM69.9739 13.1197C73.5955 13.1197 76.5338 10.1815 76.5338 6.55986C76.5338 2.93827 73.5955 0 69.9739 0C66.3523 0 63.414 2.93827 63.414 6.55986C63.414 10.1815 66.3523 13.1197 69.9739 13.1197ZM87.1525 63.9723L81.1393 48.9393L75.5224 55.2805L75.2491 57.7678L79.0347 67.2249C79.718 68.9332 81.358 69.9719 83.0936 69.9719C83.6403 69.9719 84.1869 69.8762 84.7199 69.6575C86.9612 68.7556 88.0545 66.2136 87.1525 63.9723ZM82.4786 35.3003L79.9504 24.3398C79.3217 21.6065 77.4084 19.3106 74.8255 18.2036C72.2972 17.1103 69.4956 17.288 67.1586 18.6546C64.0564 20.4859 61.7331 23.3695 60.5851 26.7724L59.0408 31.4053L56.8542 32.7993V19.6796C56.8542 18.4769 55.8702 17.493 54.6676 17.493H32.8014C31.5987 17.493 30.6147 18.4769 30.6147 19.6796V32.7993L28.4144 31.4053L26.8701 26.7724C25.7358 23.3558 23.3989 20.4859 20.2966 18.6546C17.946 17.288 15.1581 17.1103 12.6298 18.2036C10.0468 19.3106 8.13354 21.6065 7.50489 24.3398L4.99027 35.3003C4.36162 38.0335 5.08594 40.9308 6.95823 43.0491L16.142 53.4219L17.5223 66.0769C17.7683 68.3046 19.6543 69.9719 21.8683 69.9719C22.0322 69.9719 22.1826 69.9582 22.3466 69.9445C24.7519 69.6849 26.4738 67.5256 26.2142 65.1203L24.8339 52.4379C24.6289 50.6613 23.8909 49.0076 22.7019 47.6547L16.7844 40.9581L19.1896 31.3507L20.119 34.1386C20.6793 35.8469 21.7453 37.3365 23.4672 38.5939L30.4507 43.0354C31.0794 43.4318 32.1044 43.6641 32.8014 43.7187H54.6676C55.3645 43.6641 56.3895 43.4318 57.0182 43.0354L64.0017 38.5939C65.7237 37.3365 66.7896 35.8606 67.35 34.1386L68.2793 31.3507L70.6846 40.9581L64.767 47.6547C63.578 49.0076 62.8401 50.6613 62.6351 52.4379L61.2548 65.1203C60.9951 67.5256 62.7307 69.6849 65.1223 69.9445C65.2863 69.9582 65.4367 69.9719 65.6007 69.9719C67.8009 69.9719 69.7006 68.3182 69.9466 66.0769L71.3269 53.4219L80.5107 43.0491C82.3693 40.9308 83.1073 38.0335 82.4786 35.3003ZM6.32958 48.9393L0.316373 63.9723C-0.585607 66.2136 0.507703 68.7556 2.74899 69.6575C5.04494 70.5595 7.54589 69.4252 8.4342 67.2249L12.2198 57.7678L11.9465 55.2805L6.32958 48.9393Z" fill="black"/>
</svg>
