<svg width="34" height="34" viewBox="0 0 34 34" fill="none" xmlns="http://www.w3.org/2000/svg">
<path fill-rule="evenodd" clip-rule="evenodd" d="M17.9321 22.3915C17.9233 22.3915 17.9146 22.3915 17.9059 22.3915C17.6154 22.3915 17.3818 22.1557 17.3818 21.8674C17.3818 21.5792 17.6176 21.3433 17.9059 21.3433H17.9299C19.1811 21.3433 20.2861 21.1534 21.1225 20.793C21.7885 20.507 22.282 20.1117 22.5113 19.6837C22.686 19.3562 22.6882 19.0374 22.52 18.784C22.4087 18.6181 21.9392 18.0896 20.5416 18.2316C18.8405 18.4041 17.4233 17.8101 16.2834 17.3319C15.53 17.0152 14.8793 16.7445 14.3224 16.7423H14.3202C13.0144 16.7423 12.0404 17.6463 10.9115 18.6923C9.81088 19.7143 8.56181 20.8717 6.77991 21.3062C6.49821 21.3761 6.21433 21.2036 6.14663 20.9219C6.07894 20.6402 6.24927 20.3563 6.53096 20.2886C8.04863 19.9174 9.14049 18.9041 10.1974 17.9258C10.8066 17.3625 11.381 16.8274 12.0273 16.4169C12.7873 15.9321 13.5363 15.6963 14.318 15.6963H14.3202C15.0867 15.6963 15.8641 16.0217 16.6852 16.3667C17.7683 16.8209 18.9977 17.3362 20.4324 17.1899C21.7863 17.0524 22.8629 17.4214 23.387 18.2032C23.7778 18.7862 23.7931 19.5068 23.4328 20.1816C23.1926 20.6315 22.6663 21.2713 21.5352 21.7582C20.5569 22.1775 19.3427 22.3915 17.9321 22.3915Z" fill="#86086B"/>
<path fill-rule="evenodd" clip-rule="evenodd" d="M11.226 28.3246C11.0775 28.3246 10.9312 28.2634 10.8285 28.1412C10.6407 27.9206 10.6648 27.5909 10.8853 27.4031C11.9226 26.5121 12.8004 25.9706 13.6477 25.702C14.3989 25.4639 15.1348 25.4421 15.9668 25.6321C18.7183 26.2654 20.6552 25.8243 22.21 25.4705C22.3126 25.4465 22.4153 25.4246 22.5157 25.4006C23.6272 25.1517 25.9507 24.0511 28.0405 22.7867C30.816 21.1053 31.9624 19.9021 32.1022 19.3823C32.1524 19.1902 32.2135 18.8451 32.0454 18.6879C31.8488 18.5045 31.2352 18.4171 30.1565 18.7818C30.0975 18.8015 29.8289 18.9194 29.545 19.0439C27.5448 19.9173 22.234 22.2364 19.0764 22.3391C18.7859 22.3478 18.5457 22.1207 18.5348 21.8324C18.5261 21.5442 18.7532 21.3018 19.0414 21.2909C21.996 21.1948 27.3613 18.8517 29.1236 18.083C29.5472 17.8974 29.7241 17.821 29.8202 17.7882C31.5213 17.2139 32.3576 17.5458 32.7616 17.9236C33.0586 18.2031 33.36 18.7272 33.1132 19.6531C32.9625 20.2165 32.4341 20.8716 31.4995 21.6534C30.7504 22.2801 29.7416 22.9811 28.582 23.6842C26.3721 25.0228 23.9701 26.1496 22.745 26.4248C22.6467 26.4466 22.5463 26.4706 22.4436 26.4925C20.784 26.8702 18.7183 27.3419 15.7331 26.6541C14.5801 26.3898 13.4817 26.5558 11.5688 28.1979C11.4684 28.283 11.3461 28.3246 11.226 28.3246Z" fill="#86086B"/>
<path fill-rule="evenodd" clip-rule="evenodd" d="M7.16427 33.2313C6.99394 33.2313 6.82579 33.1483 6.72534 32.9933C6.56812 32.7509 6.63581 32.4255 6.8782 32.2683L11.5273 29.2438L5.45661 19.9129L0.809698 22.9373C0.567308 23.0945 0.241937 23.0268 0.0847102 22.7844C-0.0725163 22.5421 -0.00482153 22.2167 0.237569 22.0595L5.32559 18.749C5.44133 18.6725 5.58327 18.6463 5.72084 18.6747C5.85623 18.7031 5.97633 18.7861 6.05058 18.9018L12.6934 29.1106C12.8506 29.353 12.7829 29.6784 12.5405 29.8356L7.45252 33.1461C7.36299 33.2029 7.26254 33.2313 7.16427 33.2313Z" fill="#86086B"/>
<path fill-rule="evenodd" clip-rule="evenodd" d="M25.4571 14.672C25.3173 14.672 25.1841 14.6174 25.0859 14.5192L18.7378 8.17114C17.86 7.29329 17.3752 6.12501 17.3752 4.88248C17.3752 3.63996 17.86 2.47168 18.7378 1.59383C19.6157 0.715983 20.784 0.231201 22.0265 0.231201C23.269 0.231201 24.4373 0.715983 25.3152 1.59383L25.4571 1.73577L25.599 1.59383C27.4115 -0.218641 30.3617 -0.218641 32.1763 1.59383C33.0542 2.47168 33.539 3.63996 33.539 4.88248C33.539 6.12501 33.0542 7.29329 32.1763 8.17114L25.8283 14.5192C25.7301 14.6174 25.5968 14.672 25.4571 14.672ZM22.0266 1.28156C21.1051 1.28156 20.1814 1.63314 19.4804 2.33411C18.7991 3.01542 18.4257 3.91947 18.4257 4.8803C18.4257 5.84113 18.8013 6.74737 19.4804 7.4265L25.4594 13.4055L31.4362 7.42868C32.8403 6.02456 32.8403 3.73823 31.4362 2.33411C30.7548 1.65279 29.8508 1.27938 28.89 1.27938C27.9269 1.27938 27.0229 1.65497 26.3438 2.33411L25.8306 2.84728C25.7323 2.94554 25.5991 3.00013 25.4594 3.00013C25.3196 3.00013 25.1864 2.94554 25.0881 2.84728L24.575 2.33411C23.8717 1.63314 22.9502 1.28156 22.0266 1.28156Z" fill="#86086B"/>
</svg>
