<svg width="30" height="29" viewBox="0 0 30 29" fill="none" xmlns="http://www.w3.org/2000/svg">
<path d="M28.2 7.84259H21.2758C21.6194 7.66558 21.935 7.43887 22.2125 7.16979C22.6025 6.77979 22.9118 6.31679 23.1229 5.80722C23.334 5.29766 23.4426 4.75151 23.4426 4.19996C23.4426 3.64842 23.334 3.10227 23.1229 2.59271C22.9118 2.08314 22.6025 1.62014 22.2125 1.23014C21.8224 0.840138 21.3594 0.530771 20.8499 0.319703C20.3403 0.108635 19.7942 -7.54554e-08 19.2426 0C18.6911 7.54555e-08 18.1449 0.108635 17.6354 0.319704C17.1258 0.530772 16.6628 0.840139 16.2728 1.23014C15.7389 1.76408 15.3134 2.60109 15 3.72572C14.6866 2.60109 14.2611 1.76408 13.7272 1.23007C12.9393 0.443518 11.8714 0.00196146 10.7581 0.00243702C9.64479 0.00291258 8.57723 0.445381 7.79001 1.2326C7.0028 2.01983 6.56034 3.08739 6.55988 4.20069C6.55942 5.31398 7.00099 6.38191 7.78755 7.16979C8.06499 7.43887 8.38059 7.66558 8.72417 7.84259H1.8C1.32277 7.84312 0.865241 8.03293 0.52779 8.37038C0.190339 8.70783 0.000527257 9.16536 0 9.64259V14.4426C0.000527257 14.9198 0.190339 15.3773 0.52779 15.7148C0.865241 16.0523 1.32277 16.2421 1.8 16.2426H2.4V26.4426C2.40053 26.9198 2.59035 27.3773 2.9278 27.7148C3.26525 28.0522 3.72277 28.2421 4.2 28.2426H25.8C26.2772 28.2421 26.7348 28.0522 27.0722 27.7148C27.4097 27.3773 27.5995 26.9198 27.6 26.4426V16.2426H28.2C28.6772 16.2421 29.1348 16.0523 29.4722 15.7148C29.8097 15.3773 29.9995 14.9198 30 14.4426V9.64259C29.9995 9.16536 29.8097 8.70783 29.4722 8.37038C29.1348 8.03293 28.6772 7.84312 28.2 7.84259ZM17.1212 2.07865C17.6838 1.51602 18.4469 1.19994 19.2426 1.19992C19.6365 1.19992 20.0267 1.27751 20.3906 1.42827C20.7546 1.57903 21.0854 1.8 21.3639 2.07858C21.6425 2.35715 21.8635 2.68787 22.0143 3.05185C22.1651 3.41583 22.2427 3.80594 22.2427 4.19991C22.2427 4.59388 22.1651 4.984 22.0143 5.34798C21.8636 5.71197 21.6426 6.04269 21.364 6.32128C20.275 7.41013 17.2576 7.75719 15.6148 7.82787C15.6854 6.18501 16.0324 3.16751 17.1212 2.07865ZM8.63599 2.07865C9.19907 1.51689 9.96198 1.2014 10.7574 1.20139C11.5528 1.20138 12.3157 1.51686 12.8788 2.07862C13.9676 3.16751 14.3146 6.18502 14.3852 7.82787C12.7424 7.75719 9.72496 7.41013 8.63599 6.32128C8.07429 5.75819 7.75884 4.99531 7.75884 4.19997C7.75884 3.40462 8.07428 2.64174 8.63599 2.07865ZM1.2 14.4426V9.64259C1.20017 9.48351 1.26344 9.331 1.37592 9.21851C1.48841 9.10603 1.64092 9.04276 1.8 9.04259H14.4V15.0426H1.8C1.64092 15.0424 1.48841 14.9792 1.37592 14.8667C1.26344 14.7542 1.20017 14.6017 1.2 14.4426ZM3.6 26.4426V16.2426H14.4V27.0426H4.2C4.04092 27.0424 3.88841 26.9792 3.77592 26.8667C3.66344 26.7542 3.60017 26.6017 3.6 26.4426ZM26.4 26.4426C26.3998 26.6017 26.3366 26.7542 26.2241 26.8667C26.1116 26.9792 25.9591 27.0424 25.8 27.0426H15.6V16.2426H26.4V26.4426ZM28.8 14.4426C28.7998 14.6017 28.7366 14.7542 28.6241 14.8667C28.5116 14.9792 28.3591 15.0424 28.2 15.0426H15.6V9.04259H28.2C28.3591 9.04276 28.5116 9.10603 28.6241 9.21851C28.7366 9.331 28.7998 9.48351 28.8 9.64259V14.4426Z" fill="#86086B"/>
</svg>
