<svg width="92" height="77" viewBox="0 0 92 77" fill="none" xmlns="http://www.w3.org/2000/svg">
<path fill-rule="evenodd" clip-rule="evenodd" d="M21.4266 27.4522C26.6037 27.4522 30.8005 23.2553 30.8005 18.0783C30.8005 12.9012 26.6037 8.70435 21.4266 8.70435C16.2495 8.70435 12.0527 12.9012 12.0527 18.0783C12.0527 23.2553 16.2495 27.4522 21.4266 27.4522ZM14.731 31.4696C13.3876 31.4696 12.1333 32.141 11.3882 33.2584L0.67513 49.3279C-0.555584 51.1741 -0.0567314 53.6683 1.78937 54.8993C3.63547 56.1299 6.12976 55.631 7.36047 53.7851L10.7136 48.7556V72.9826C10.7136 75.2013 12.512 77 14.731 77C16.9496 77 18.7484 75.2013 18.7484 72.9826V59.5913H24.1049V72.9826C24.1049 75.2013 25.9033 77 28.1223 77C30.3409 77 32.1397 75.2013 32.1397 72.9826V48.7556L35.4926 53.7851C36.7232 55.631 39.2175 56.1299 41.0636 54.8993C42.9098 53.6683 43.4087 51.1741 42.1778 49.3279L31.4647 33.2584C30.7197 32.141 29.4654 31.4696 28.1223 31.4696H14.731Z" fill="black"/>
<path fill-rule="evenodd" clip-rule="evenodd" d="M80.3484 1.08603C80.3484 0.288709 79.4362 -0.236258 78.6461 0.106854L69.6354 4.01738L60.6244 0.106854C59.8345 -0.236258 58.9223 0.288709 58.9223 1.08603V6.94874C58.9223 7.74633 59.8345 8.27073 60.6244 7.92818L69.6354 4.01738L78.6461 7.92818C79.4362 8.27073 80.3484 7.74633 80.3484 6.94874V1.08603ZM69.6354 27.4522C74.8125 27.4522 79.0093 23.2553 79.0093 18.0783C79.0093 12.9012 74.8125 8.70434 69.6354 8.70434C64.4583 8.70434 60.2615 12.9012 60.2615 18.0783C60.2615 23.2553 64.4583 27.4522 69.6354 27.4522ZM62.9397 31.4696C61.5963 31.4696 60.3421 32.141 59.597 33.2584L48.8839 49.3279C47.6533 51.1741 48.152 53.6683 49.9981 54.8993C51.8442 56.1299 54.3385 55.631 55.5691 53.7851L58.9223 48.7556V53.5652L53.5658 64.2783H58.9223V72.9826C58.9223 75.2013 60.7208 77 62.9397 77C65.1584 77 66.9571 75.2013 66.9571 72.9826V64.2783H72.3136V72.9826C72.3136 75.2013 74.1121 77 76.331 77C78.5497 77 80.3484 75.2013 80.3484 72.9826V64.2783H85.7049L80.3484 53.5652V48.7556L83.7013 53.7851C84.932 55.631 87.4263 56.1299 89.2724 54.8993C91.1185 53.6683 91.6175 51.1741 90.3865 49.3279L79.6735 33.2584C78.9284 32.141 77.6742 31.4696 76.331 31.4696H62.9397Z" fill="black"/>
</svg>
