<svg width="38" height="35" viewBox="0 0 38 35" fill="none" xmlns="http://www.w3.org/2000/svg">
<path fill-rule="evenodd" clip-rule="evenodd" d="M6.3404 4.16565C6.3404 2.78528 7.45938 1.66626 8.83979 1.66626C10.2202 1.66626 11.3392 2.78528 11.3392 4.16565C11.3392 5.54602 10.2202 6.66503 8.83979 6.66503C7.45938 6.66503 6.3404 5.54602 6.3404 4.16565ZM8.83979 0C6.82449 0 5.14344 1.43112 4.75748 3.33252H3.00789H2.17476V4.16565C2.17476 5.46203 2.54488 6.67195 3.18521 7.69553C3.06417 7.74494 2.94532 7.801 2.83128 7.86082C2.41893 8.07719 1.97273 8.39303 1.55926 8.80609C0.728038 9.63655 0 10.8931 0 12.5472C0 14.5888 0.676867 16.0779 1.51168 17.066C1.92491 17.5552 2.37544 17.9199 2.79757 18.1669C2.93364 18.2464 3.07602 18.3193 3.22086 18.3805V31.8926C3.22086 33.1406 4.23851 34.1583 5.48654 34.1583C6.73457 34.1583 7.75223 33.1406 7.75223 31.8926V22.9338H9.82747V31.8926C9.82747 33.1406 10.8451 34.1583 12.0932 34.1583C13.3412 34.1583 14.3589 33.1406 14.3589 31.8926V19.908C14.7324 19.9654 15.1152 19.9951 15.5048 19.9951H16.338C18.1912 19.9951 19.8678 19.2387 21.076 18.0178C20.7316 19.3465 20.5036 20.848 20.5036 22.4945C20.5036 22.7811 20.5528 23.0625 20.6466 23.3276H18.0042H17.1711V24.1607V33.3252H18.8373V24.9939H22.9921H23.003H28.8349V33.3252H30.5012V25.226L33.151 32.5131C33.6227 33.8104 35.0568 34.4795 36.3541 34.0078C37.6513 33.5361 38.3206 32.1021 37.8489 30.8048L34.5163 21.6404C34.4052 21.3349 34.2387 21.0609 34.0305 20.8282H35.4999C36.8803 20.8282 37.9993 19.7093 37.9993 18.3288C37.9993 16.9485 36.8803 15.8295 35.4999 15.8295H30.4341L28.7096 12.093C29.2523 12.352 29.8598 12.4969 30.5012 12.4969C32.8018 12.4969 34.6668 10.6319 34.6668 8.33129C34.6668 6.03069 32.8018 4.16565 30.5012 4.16565C28.2006 4.16565 26.3355 6.03069 26.3355 8.33129C26.3355 9.12043 26.555 9.85842 26.9362 10.4873C26.8593 10.4684 26.7811 10.4529 26.7019 10.4411C25.8678 10.3176 25.0277 10.6228 24.4675 11.253L24.4486 11.2743L24.4311 11.2968L23.7945 12.1198L23.7834 12.1342L23.7729 12.1491C23.5481 12.4675 23.2832 12.8691 23.003 13.348L23.0031 13.3301L23.003 11.6638H21.5796C21.2033 11.2912 20.6856 11.061 20.1141 11.061H17.7833L14.1831 8.15034C15.0133 7.03886 15.5048 5.65965 15.5048 4.16565V3.33252H14.6717H12.9221C12.5361 1.43112 10.8551 0 8.83979 0ZM4.05399 9.16442H4.43116C5.40998 10.0284 6.6445 10.6092 8.00666 10.7791V12.4969C8.00666 15.6435 9.94486 18.3374 12.6926 19.4499V31.8926C12.6926 32.2204 12.4209 32.492 12.0932 32.492C11.7654 32.492 11.4937 32.2204 11.4937 31.8926V22.1007V21.2675H10.6606H6.9191H6.08597V22.1007V31.8926C6.08597 32.2204 5.81432 32.492 5.48654 32.492C5.15876 32.492 4.88712 32.2204 4.88712 31.8926V17.7398V16.9067H4.88569V11.6638H3.21943V16.4283C3.07647 16.3071 2.92904 16.1618 2.78451 15.9907C2.20587 15.3057 1.66626 14.1985 1.66626 12.5472C1.66626 11.418 2.15471 10.5666 2.73693 9.98489C3.03018 9.69188 3.33996 9.47559 3.60539 9.33638C3.88881 9.18766 4.04622 9.1655 4.05399 9.16442C4.05402 9.16442 4.054 9.16442 4.05399 9.16442ZM15.5048 18.3288C15.1126 18.3288 14.7294 18.2901 14.3589 18.2163V13.6492L15.7372 14.7635C16.1078 15.0631 16.57 15.2266 17.0466 15.2266H20.114C20.4503 15.2267 20.768 15.147 21.0491 15.0055C20.3603 16.9422 18.5111 18.3288 16.338 18.3288H15.5048ZM9.67292 12.4969C9.67292 14.6981 10.8924 16.6144 12.6926 17.6072V11.9043V10.1593L14.0495 11.2564L16.7848 13.4677C16.8589 13.5276 16.9513 13.5603 17.0466 13.5603H20.114C20.3441 13.5604 20.5306 13.3739 20.5306 13.1439C20.5306 12.9138 20.3441 12.7273 20.114 12.7272H17.4886H17.194L16.9648 12.5419L13.0228 9.35496C12.0827 10.1136 10.9324 10.6221 9.67292 10.7791V12.4969ZM8.83979 9.16442C11.3167 9.16442 13.3728 7.36295 13.7694 4.99878H12.9221C12.5361 6.90014 10.8551 8.33129 8.83979 8.33129C6.82449 8.33129 5.14344 6.90014 4.75748 4.99878H3.91013C4.30677 7.36295 6.3629 9.16442 8.83979 9.16442ZM28.0018 8.33129C28.0018 6.95088 29.1207 5.8319 30.5012 5.8319C31.8816 5.8319 33.0005 6.95088 33.0005 8.33129C33.0005 9.7117 31.8816 10.8307 30.5012 10.8307C29.1207 10.8307 28.0018 9.7117 28.0018 8.33129ZM30.5012 23.3276H31.0003H31.5839L31.7833 23.8761L34.717 31.9437C34.8742 32.3761 35.3522 32.5992 35.7846 32.4419C36.2171 32.2847 36.4401 31.8066 36.2829 31.3742L32.9504 22.2098C32.8307 21.8806 32.5177 21.6614 32.1674 21.6614H24.7717H23.8294L23.9449 20.7262C24.1793 18.8279 24.7588 17.2302 25.3522 16.0155L26.1221 14.4394L26.8572 16.0321L28.0784 18.678C28.2146 18.973 28.5099 19.162 28.8349 19.162H35.4999C35.9601 19.162 36.3331 18.789 36.3331 18.3288C36.3331 17.8687 35.9601 17.4957 35.4999 17.4957H29.9011H29.3679L29.1446 17.0117L27.092 12.5644C26.9742 12.3092 26.7357 12.1306 26.4576 12.0894C26.1874 12.0494 25.9153 12.1444 25.7287 12.3426L25.1238 13.1246C24.7923 13.5957 24.3577 14.2774 23.9241 15.1445C23.0486 16.8953 22.1699 19.4184 22.1699 22.4945C22.1699 22.7154 22.2577 22.9274 22.4139 23.0836C22.5686 23.2384 22.778 23.326 22.9967 23.3276H29.668H30.5012ZM26.5655 19.3763C26.6713 19.6053 26.809 19.813 26.9719 19.9951H25.7493C25.8569 19.4546 25.994 18.9463 26.1488 18.4732L26.5655 19.3763Z" fill="#86086B"/>
</svg>
