<svg width="79" height="79" viewBox="0 0 79 79" fill="none" xmlns="http://www.w3.org/2000/svg">
<path d="M75.9071 13.8547L51.9542 5.8985H51.7855C51.4194 5.71018 51.0163 5.60461 50.6048 5.58924C50.1822 5.58858 49.7663 5.69497 49.3959 5.8985H49.171L41.1586 8.93478C40.5122 7.28053 39.5583 5.76374 38.3472 4.46469C36.8748 2.88745 35.0591 1.67032 33.0408 0.907582C31.0224 0.144848 28.8556 -0.143012 26.7081 0.066301C24.5606 0.275614 22.4901 0.976481 20.657 2.11461C18.8239 3.25274 17.2774 4.79758 16.1373 6.62945C15.5917 7.51341 15.1484 8.45661 14.816 9.44083L5.45411 6.3202C4.83081 6.10987 4.1663 6.05136 3.51584 6.14955C2.86538 6.24775 2.24775 6.4998 1.71431 6.88476C1.18088 7.26971 0.747041 7.77644 0.448878 8.36283C0.150716 8.94921 -0.00315818 9.5983 4.91289e-05 10.2561V14.0234C4.91446e-05 14.769 0.296246 15.4841 0.823481 16.0113C1.35072 16.5385 2.0658 16.8347 2.81142 16.8347C3.55705 16.8347 4.27213 16.5385 4.79936 16.0113C5.3266 15.4841 5.6228 14.769 5.6228 14.0234V12.3084L14.0569 15.1198C14.1874 16.949 14.6744 18.7349 15.4907 20.3771L25.5273 40.5908C25.7575 41.0662 26.117 41.467 26.5645 41.7475C27.012 42.028 27.5294 42.1768 28.0576 42.1768C28.5857 42.1768 29.1031 42.028 29.5506 41.7475C29.9981 41.467 30.3576 41.0662 30.5878 40.5908L40.6244 20.3771C41.4687 18.7587 41.9937 16.9929 42.1707 15.176C42.1847 14.9795 42.1847 14.7822 42.1707 14.5856L47.7934 12.449V65.4996L30.9252 71.8252V50.5712C30.9252 49.8256 30.629 49.1105 30.1017 48.5833C29.5745 48.056 28.8594 47.7598 28.1138 47.7598C27.3682 47.7598 26.6531 48.056 26.1258 48.5833C25.5986 49.1105 25.3024 49.8256 25.3024 50.5712V71.9658L5.6228 65.4153V25.2689C5.6228 24.5232 5.3266 23.8082 4.79936 23.2809C4.27213 22.7537 3.55705 22.4575 2.81142 22.4575C2.0658 22.4575 1.35072 22.7537 0.823481 23.2809C0.296246 23.8082 4.91289e-05 24.5232 4.91289e-05 25.2689V66.4836C4.91289e-05 67.3508 0.271016 68.1964 0.775073 68.902C1.27913 69.6077 1.99109 70.1383 2.81142 70.4195L26.7362 78.3757H26.933C27.2963 78.5715 27.7012 78.6776 28.1138 78.685C28.5444 78.678 28.9676 78.5722 29.3508 78.3757H29.5476L50.6048 70.4195L58.083 72.9216C58.7914 73.1602 59.5655 73.1077 60.2351 72.7755C60.9047 72.4434 61.4149 71.8588 61.6535 71.1505C61.8921 70.4421 61.8395 69.668 61.5073 68.9984C61.1752 68.3288 60.5906 67.8186 59.8823 67.58L53.4161 65.4153V12.3084L73.0958 18.8589V71.9658L71.184 71.3192C70.4757 71.0806 69.7016 71.1331 69.032 71.4653C68.3624 71.7974 67.8522 72.382 67.6136 73.0903C67.375 73.7987 67.4275 74.5728 67.7597 75.2424C68.0919 75.912 68.6764 76.4222 69.3847 76.6608L73.2644 77.954C73.6809 78.0969 74.1174 78.1728 74.5577 78.1789C75.4341 78.1718 76.2875 77.8972 77.0036 77.3917C77.5325 77.0019 77.963 76.4938 78.2607 75.9081C78.5585 75.3223 78.7152 74.6751 78.7185 74.0181V17.7906C78.7185 16.9234 78.4475 16.0779 77.9435 15.3722C77.4394 14.6665 76.7275 14.1359 75.9071 13.8547ZM35.6483 17.8749L28.1138 33.0001L20.5793 17.8749C19.924 16.576 19.6159 15.1296 19.6849 13.6764C19.7538 12.2231 20.1975 10.8125 20.9729 9.5814C21.6676 8.49537 22.602 7.58305 23.7044 6.91455C24.8067 6.24604 26.0476 5.83915 27.3318 5.72512C28.616 5.61109 29.9092 5.79297 31.1121 6.25678C32.3149 6.72059 33.3955 7.45399 34.2707 8.40062C35.0668 9.26803 35.677 10.2891 36.0638 11.4012C36.4506 12.5132 36.6058 13.6926 36.5198 14.8668C36.4085 15.913 36.1135 16.9313 35.6483 17.8749Z" fill="#231F20"/>
<path d="M28.1139 11.212C27.5578 11.212 27.0143 11.3769 26.5519 11.6858C26.0896 11.9948 25.7293 12.4338 25.5165 12.9475C25.3037 13.4613 25.248 14.0265 25.3565 14.5719C25.465 15.1172 25.7327 15.6182 26.1259 16.0114C26.5191 16.4045 27.02 16.6723 27.5654 16.7808C28.1107 16.8892 28.676 16.8336 29.1897 16.6208C29.7034 16.408 30.1425 16.0477 30.4514 15.5853C30.7604 15.123 30.9252 14.5794 30.9252 14.0234C30.9252 13.2778 30.629 12.5627 30.1018 12.0355C29.5746 11.5082 28.8595 11.212 28.1139 11.212Z" fill="#231F20"/>
</svg>
