<svg width="53" height="41" viewBox="0 0 53 41" fill="none" xmlns="http://www.w3.org/2000/svg">
<path d="M52.2665 21.9815L34.5989 39.649C33.0215 41.2265 30.2872 40.1223 30.2872 37.8613V27.7655H15.9849C14.5862 27.7655 13.461 26.6403 13.461 25.2416V15.1458C13.461 13.7472 14.5862 12.6219 15.9849 12.6219H30.2872V2.52617C30.2872 0.275663 33.011 -0.839075 34.5989 0.738384L52.2665 18.4059C53.2445 19.3945 53.2445 20.993 52.2665 21.9815ZM20.1915 39.1232V34.9167C20.1915 34.2226 19.6236 33.6547 18.9295 33.6547H10.0957C8.23434 33.6547 6.73049 32.1509 6.73049 30.2895V10.098C6.73049 8.23657 8.23434 6.73273 10.0957 6.73273H18.9295C19.6236 6.73273 20.1915 6.16484 20.1915 5.47076V1.2642C20.1915 0.570122 19.6236 0.00223669 18.9295 0.00223669H10.0957C4.52205 0.00223669 0 4.52429 0 10.098V30.2895C0 35.8631 4.52205 40.3852 10.0957 40.3852H18.9295C19.6236 40.3852 20.1915 39.8173 20.1915 39.1232Z" fill="#9D3687"/>
</svg>
