<svg width="37" height="37" viewBox="0 0 37 37" fill="none" xmlns="http://www.w3.org/2000/svg">
<path fill-rule="evenodd" clip-rule="evenodd" d="M28.4851 7.12126C27.5018 7.12126 26.7048 7.91831 26.7048 8.90158C26.7048 9.88485 27.5018 10.6819 28.4851 10.6819C29.4684 10.6819 30.2654 9.88485 30.2654 8.90158C30.2654 7.91831 29.4684 7.12126 28.4851 7.12126ZM24.9245 8.90158C24.9245 6.93513 26.5187 5.34094 28.4851 5.34094C30.4516 5.34094 32.0457 6.93513 32.0457 8.90158C32.0457 10.868 30.4516 12.4622 28.4851 12.4622C26.5187 12.4622 24.9245 10.868 24.9245 8.90158Z" fill="#86086B"/>
<path fill-rule="evenodd" clip-rule="evenodd" d="M22.8393 13.4644C23.346 12.831 24.1133 12.4622 24.9245 12.4622H30.2655C30.3345 12.4622 30.4029 12.4648 30.4709 12.47H32.8386C33.2498 12.47 33.7059 12.6362 34.1008 12.8434C34.5236 13.0652 34.9804 13.3885 35.4035 13.8113C36.2543 14.6613 37.0001 15.9483 37.0001 17.6423C37.0001 19.7262 36.3091 21.2487 35.4543 22.2603C35.0315 22.7609 34.57 23.1345 34.1369 23.388C34.0059 23.4646 33.8688 23.5354 33.7288 23.596V33.7306C33.7288 35.0224 32.6754 36.0758 31.3835 36.0758C30.0917 36.0758 29.0383 35.0224 29.0383 33.7306V27.3456H27.9086V33.7306C27.9086 35.0224 26.8553 36.0758 25.5634 36.0758C24.2715 36.0758 23.2182 35.0224 23.2182 33.7306V21.5052C22.7236 21.9824 22.06 22.2539 21.3639 22.2539H16.023C14.5481 22.2539 13.3525 21.0583 13.3525 19.5834C13.3525 18.1085 14.5481 16.913 16.023 16.913H20.0804L22.8393 13.4644ZM24.9245 14.2425C24.6541 14.2425 24.3984 14.3654 24.2294 14.5766L20.9361 18.6933H16.023C15.5313 18.6933 15.1328 19.0918 15.1328 19.5834C15.1328 20.0751 15.5313 20.4736 16.023 20.4736H21.3639C21.6343 20.4736 21.8901 20.3507 22.059 20.1395L24.9985 16.4651V33.7306C24.9985 34.0393 25.2548 34.2954 25.5634 34.2954C25.872 34.2954 26.1283 34.0393 26.1283 33.7306V25.5653H30.8186V33.7306C30.8186 34.0393 31.0749 34.2954 31.3835 34.2954C31.6922 34.2954 31.9484 34.0393 31.9484 33.7306V22.0262H32.8386C32.8333 22.0262 32.8349 22.0258 32.8432 22.0238C32.8762 22.0159 33.0128 21.983 33.2377 21.8514C33.493 21.702 33.7994 21.4605 34.0943 21.1114C34.6754 20.4237 35.2198 19.3091 35.2198 17.6423C35.2198 16.5091 34.73 15.655 34.1453 15.0708C33.8505 14.7764 33.5395 14.5594 33.2738 14.4199C33.0188 14.2862 32.8699 14.2568 32.8426 14.2514C32.8385 14.2506 32.8386 14.2503 32.8386 14.2503H30.3919L30.3505 14.2464C30.3227 14.2438 30.2944 14.2425 30.2655 14.2425H24.9245Z" fill="#86086B"/>
<path fill-rule="evenodd" clip-rule="evenodd" d="M0 0H29.3753V4.59322H27.5949V1.78032H1.78032V23.1441H22.254V24.9245H0V0Z" fill="#86086B"/>
<path fill-rule="evenodd" clip-rule="evenodd" d="M31.9444 22.8104V16.0386H33.7247V22.8104H31.9444Z" fill="#86086B"/>
</svg>
