<svg width="64" height="64" viewBox="0 0 64 64" fill="none" xmlns="http://www.w3.org/2000/svg">
<path d="M32 64C28.8 64 26.4 61.3333 24.5333 59.2C23.4667 58.1333 22.4 56.8 21.8667 56.5333C21.0667 56.2667 19.2 56.2667 17.8667 56.2667C14.9333 56.5333 11.7333 56.5333 9.6 54.4C7.46667 52.2667 7.46667 48.8 7.73333 46.1333C7.73333 44.5333 8 42.9333 7.46667 42.1333C7.2 41.3333 5.86667 40.2667 4.8 39.4667C2.66667 37.6 0 35.2 0 32C0 28.8 2.66667 26.4 4.8 24.5333C5.86667 23.4667 7.2 22.4 7.46667 21.8667C7.73333 21.0667 7.73333 19.2 7.73333 17.8667C7.46667 14.9333 7.46667 11.7333 9.6 9.6C11.7333 7.46667 15.2 7.46667 17.8667 7.73333C19.4667 7.73333 21.0667 8 21.8667 7.46667C22.6667 7.2 23.7333 5.86667 24.5333 4.8C26.4 2.66667 28.8 0 32 0C35.2 0 37.6 2.66667 39.4667 4.8C40.5333 5.86667 41.6 7.2 42.1333 7.46667C42.9333 7.73333 44.8 7.73333 46.1333 7.73333C49.0667 7.46667 52.2667 7.46667 54.4 9.6C56.5333 11.7333 56.5333 15.2 56.2667 17.8667C56.2667 19.4667 56 21.0667 56.5333 21.8667C56.8 22.6667 58.1333 23.7333 59.2 24.5333C61.3333 26.4 64 28.8 64 32C64 35.2 61.3333 37.6 59.2 39.4667C58.1333 40.5333 56.8 41.6 56.5333 42.1333C56.2667 42.9333 56.2667 44.8 56.2667 46.1333C56.5333 49.0667 56.5333 52.2667 54.4 54.4C52.2667 56.5333 48.8 56.5333 46.1333 56.2667C44.5333 56.2667 42.9333 56 42.1333 56.5333C41.3333 56.8 40.2667 58.1333 39.4667 59.2C37.6 61.3333 35.2 64 32 64ZM20 50.9333C21.3333 50.9333 22.6667 51.2 24 51.4667C25.8667 52.2667 27.4667 53.8667 28.8 55.4667C29.8667 56.8 31.4667 58.4 32.2667 58.4C33.0667 58.4 34.6667 56.8 35.7333 55.4667C37.0667 53.8667 38.6667 52.2667 40.5333 51.4667C42.4 50.6667 44.8 50.6667 46.9333 50.9333C48.5333 50.9333 50.6667 51.2 51.2 50.6667C51.7333 50.1333 51.4667 48 51.4667 46.4C51.2 44.2667 51.2 41.8667 52 40C52.8 38.1333 54.4 36.5333 56 35.2C57.0667 34.4 58.6667 32.8 58.6667 32C58.6667 31.2 57.0667 29.6 55.7333 28.5333C54.1333 27.2 52.5333 25.6 51.7333 23.7333C50.9333 21.8667 50.9333 19.4667 51.2 17.3333C51.2 15.7333 51.4667 13.6 50.9333 13.0667C50.4 12.5333 48.2667 12.8 46.6667 12.8C44.5333 13.0667 42.1333 13.0667 40.2667 12.2667C38.4 11.4667 36.8 9.86667 35.4667 8.26667C34.4 6.93333 32.8 5.33333 32 5.33333C31.2 5.33333 29.6 6.93333 28.5333 8.26667C27.2 9.86667 25.6 11.4667 23.7333 12.2667C21.8667 13.0667 19.4667 13.0667 17.3333 12.8C15.7333 12.8 13.6 12.5333 13.0667 13.0667C12.5333 13.6 12.8 15.7333 12.8 17.3333C13.0667 19.4667 13.0667 21.8667 12.2667 23.7333C11.4667 25.6 9.86667 27.2 8.26667 28.5333C6.93333 29.6 5.33333 31.2 5.33333 32C5.33333 32.8 6.93333 34.4 8.26667 35.4667C9.86667 36.8 11.4667 38.4 12.2667 40.2667C13.0667 42.1333 13.0667 44.5333 12.8 46.6667C12.8 48.2667 12.5333 50.4 13.0667 50.9333C13.6 51.4667 15.7333 51.2 17.3333 51.2C18.1333 51.2 18.9333 50.9333 20 50.9333ZM29.3333 43.7333L19.4667 33.8667L23.2 30.1333L29.3333 36.2667L43.4667 22.1333L47.2 25.8667L29.3333 43.7333Z" fill="#9D3687"/>
</svg>
