<svg width="79" height="74" viewBox="0 0 79 74" fill="none" xmlns="http://www.w3.org/2000/svg">
<path d="M39.3593 0C23.8573 0 11.2455 12.6118 11.2455 28.1138C11.2455 43.6157 23.8573 56.2275 39.3593 56.2275C54.8612 56.2275 67.473 43.6157 67.473 28.1138C67.473 12.6118 54.8612 0 39.3593 0ZM39.3593 5.62275C51.7602 5.62275 61.8503 15.7128 61.8503 28.1138C61.8503 40.5147 51.7602 50.6048 39.3593 50.6048C26.9583 50.6048 16.8683 40.5147 16.8683 28.1138C16.8683 15.7128 26.9583 5.62275 39.3593 5.62275ZM36.5479 11.2455V14.5895C36.1402 14.7371 35.744 14.9175 35.3673 15.1221C34.9906 15.3268 34.6311 15.5577 34.2911 15.814C33.9511 16.0703 33.6333 16.3515 33.3357 16.6541C32.7404 17.2593 32.2335 17.9496 31.8421 18.7077C31.6464 19.0868 31.4786 19.4846 31.3424 19.8938C31.0701 20.7121 30.9251 21.5843 30.9251 22.491C30.9251 23.0673 30.9873 23.6309 31.1008 24.1767C31.3279 25.2683 31.7701 26.2875 32.3802 27.1858C32.6853 27.6349 33.0295 28.0547 33.4125 28.4377C34.1786 29.2038 35.0908 29.8247 36.0976 30.2552C37.1044 30.6857 38.2066 30.9251 39.3593 30.9251C39.7599 30.9251 40.1352 31.0009 40.4739 31.1393C40.8126 31.2776 41.1122 31.481 41.3635 31.7323C41.6147 31.9836 41.8181 32.2832 41.9565 32.6218C42.0949 32.9605 42.1706 33.3359 42.1706 33.7365C42.1706 34.9384 41.49 35.9186 40.4739 36.3337C40.1352 36.4721 39.7599 36.5479 39.3593 36.5479C38.9586 36.5479 38.5833 36.4721 38.2446 36.3337C37.9059 36.1954 37.6063 35.992 37.355 35.7407C36.8525 35.2382 36.5479 34.5377 36.5479 33.7365H30.9251C30.9251 34.1898 30.964 34.6369 31.0349 35.0708C31.1059 35.5048 31.2063 35.9245 31.3424 36.3337C31.4786 36.7429 31.6464 37.1407 31.8421 37.5198C32.0378 37.8988 32.2625 38.258 32.512 38.6015C32.7615 38.945 33.0381 39.2708 33.3357 39.5734C33.6333 39.876 33.9511 40.1572 34.2911 40.4135C34.6311 40.6698 34.9906 40.9007 35.3673 41.1054C35.744 41.31 36.1402 41.4904 36.5479 41.638V44.982H42.1706V41.638C45.0242 40.6048 47.187 38.1085 47.6836 35.0708C47.7545 34.6369 47.7934 34.1898 47.7934 33.7365C47.7934 33.1602 47.7312 32.5966 47.6177 32.0508C47.5041 31.505 47.3387 30.9783 47.1235 30.4749C46.9082 29.9715 46.6433 29.4909 46.3383 29.0417C46.0332 28.5926 45.689 28.1728 45.306 27.7898C44.9229 27.4067 44.5032 27.0626 44.054 26.7575C43.6049 26.4524 43.1243 26.1875 42.6209 25.9723C42.1175 25.757 41.5908 25.5916 41.045 25.4781C40.4992 25.3645 39.9356 25.3024 39.3593 25.3024C38.9586 25.3024 38.5833 25.2266 38.2446 25.0882C37.9059 24.9499 37.6063 24.7465 37.355 24.4952C37.1038 24.2439 36.9004 23.9444 36.762 23.6057C36.6236 23.267 36.5479 22.8916 36.5479 22.491C36.5479 22.0904 36.6236 21.715 36.762 21.3763C36.9004 21.0377 37.1038 20.7381 37.355 20.4868C37.6063 20.2355 37.9059 20.0321 38.2446 19.8938C38.5833 19.7554 38.9586 19.6796 39.3593 19.6796C40.9617 19.6796 42.1706 20.8885 42.1706 22.491H47.7934C47.7934 22.0377 47.7545 21.5906 47.6836 21.1567C47.6126 20.7227 47.5122 20.303 47.3761 19.8938C46.559 17.4387 44.6165 15.4751 42.1706 14.5895V11.2455H36.5479ZM0 50.6048V73.0958H5.62275V56.2275H20.7504C18.3579 54.6391 16.1966 52.7358 14.282 50.6048H0ZM64.4365 50.6048C62.522 52.7358 60.3606 54.6391 57.9681 56.2275H73.0958V73.0958H78.7185V50.6048H64.4365ZM11.2455 61.8503V67.473H67.473V61.8503H11.2455Z" fill="black"/>
</svg>
