<svg width="62" height="62" viewBox="0 0 62 62" fill="none" xmlns="http://www.w3.org/2000/svg">
<path d="M56.8333 7.75H5.16667C2.325 7.75 0 10.075 0 12.9167V49.0833C0 51.925 2.325 54.25 5.16667 54.25H56.8333C59.675 54.25 61.9742 51.925 61.9742 49.0833L62 12.9167C62 10.075 59.675 7.75 56.8333 7.75ZM56.8333 49.0833H5.16667V12.9167H56.8333V49.0833ZM49.1092 46.4742L54.25 41.3333L50.3492 36.1667H46.1125C45.5442 34.5392 45.2083 32.8083 45.2083 31C45.2083 29.1917 45.5442 27.4608 46.1125 25.8333H50.3492L54.25 20.6667L49.1092 15.5258C45.725 18.0575 43.2192 21.6483 42.0567 25.8333C41.5917 27.4867 41.3333 29.2175 41.3333 31C41.3333 32.7825 41.5917 34.5133 42.0567 36.1667C43.2192 40.3258 45.725 43.9425 49.1092 46.4742ZM23.25 31C27.5125 31 31 27.5125 31 23.25C31 18.9875 27.5125 15.5 23.25 15.5C18.9875 15.5 15.5 18.9875 15.5 23.25C15.5 27.5125 18.9875 31 23.25 31ZM23.25 20.6667C24.6708 20.6667 25.8333 21.8292 25.8333 23.25C25.8333 24.6708 24.6708 25.8333 23.25 25.8333C21.8292 25.8333 20.6667 24.6708 20.6667 23.25C20.6667 21.8292 21.8292 20.6667 23.25 20.6667ZM38.75 42.8575C38.75 36.3992 28.4942 33.6092 23.25 33.6092C18.0058 33.6092 7.75 36.3992 7.75 42.8575V46.5H38.75V42.8575ZM14.1567 41.3333C16.0683 40.0417 19.8917 38.75 23.25 38.75C26.6083 38.75 30.4058 40.0158 32.3433 41.3333H14.1567Z" fill="#9D3687"/>
</svg>
