<svg width="69" height="56" viewBox="0 0 69 56" fill="none" xmlns="http://www.w3.org/2000/svg">
<path d="M40.9542 15.2013H38.9442C38.2461 15.2013 37.68 15.7673 37.68 16.4655V22.0457C37.68 22.7439 37.114 23.3099 36.4157 23.3099H30.9367C30.2385 23.3099 29.6724 22.744 29.6724 22.0457V16.4655C29.6724 15.7674 29.1065 15.2013 28.4082 15.2013H26.411C25.3852 15.2013 24.7865 14.044 25.3791 13.2067L32.6506 2.93388C33.1544 2.22207 34.2105 2.22207 34.7143 2.93388L41.9858 13.2067C42.5787 14.044 41.9799 15.2013 40.9542 15.2013Z" stroke="#9D3687" stroke-width="4.52821" stroke-miterlimit="10"/>
<path d="M66.2501 35.5022V49.0884C66.2501 51.2528 64.4899 53 62.3384 53H6.79499C4.69902 53 3 51.301 3 49.205V35.3856C3 33.2896 4.69902 31.5906 6.79499 31.5906H13.6344C15.0517 31.5906 16.452 32.2522 17.1594 33.4802C17.7981 34.589 18.9849 35.3326 20.3413 35.3326L34.6185 35.3456L48.8957 35.3326C50.252 35.3326 51.4388 34.589 52.0777 33.4802C52.7852 32.2522 54.1854 31.5906 55.6026 31.5906H62.3384C64.4899 31.5906 66.2501 33.3378 66.2501 35.5022Z" stroke="#9D3687" stroke-width="4.52821" stroke-miterlimit="10" stroke-linecap="round" stroke-linejoin="round"/>
</svg>
