<svg width="71" height="71" viewBox="0 0 71 71" fill="none" xmlns="http://www.w3.org/2000/svg">
<path d="M37.8064 61.2393C51.3581 61.2393 62.3438 50.2535 62.3438 36.7019C62.3438 23.1503 51.3581 12.1645 37.8064 12.1645C24.2548 12.1645 13.269 23.1503 13.269 36.7019C13.269 50.2535 24.2548 61.2393 37.8064 61.2393Z" fill="#E5EFEF"/>
<path d="M64.6264 47.5439C65.2567 47.5439 65.7677 47.0329 65.7677 46.4026C65.7677 45.7723 65.2567 45.2614 64.6264 45.2614C63.9961 45.2614 63.4851 45.7723 63.4851 46.4026C63.4851 47.0329 63.9961 47.5439 64.6264 47.5439Z" fill="#4C241D"/>
<path d="M48.6486 42.9788C49.2789 42.9788 49.7899 42.4678 49.7899 41.8375C49.7899 41.2072 49.2789 40.6962 48.6486 40.6962C48.0183 40.6962 47.5073 41.2072 47.5073 41.8375C47.5073 42.4678 48.0183 42.9788 48.6486 42.9788Z" fill="#4C241D"/>
<path d="M10.9865 45.2614C11.6168 45.2614 12.1278 44.7504 12.1278 44.1201C12.1278 43.4898 11.6168 42.9788 10.9865 42.9788C10.3562 42.9788 9.84521 43.4898 9.84521 44.1201C9.84521 44.7504 10.3562 45.2614 10.9865 45.2614Z" fill="#4C241D"/>
<path d="M8.65381 34.2343L8.83527 34.2549C15.3953 34.983 18.8853 30.6336 24.6316 27.3867L43.4102 21.1268C43.9238 20.9556 44.3705 20.6272 44.6872 20.1881C45.0038 19.7489 45.1744 19.2213 45.1746 18.6799C45.1747 18.3308 45.1039 17.9852 44.9665 17.6643C44.8291 17.3433 44.6279 17.0535 44.3753 16.8126C44.1226 16.5716 43.8236 16.3845 43.4965 16.2625C43.1693 16.1405 42.8208 16.0862 42.472 16.1029L21.2078 17.1152L8.65381 34.2343Z" fill="#B5A19C" stroke="#4C241D" stroke-width="5.38521" stroke-linecap="round" stroke-linejoin="round"/>
<path d="M26.9644 45.2614C33.8978 45.2614 39.5184 39.6408 39.5184 32.7074C39.5184 25.774 33.8978 20.1534 26.9644 20.1534C20.031 20.1534 14.4104 25.774 14.4104 32.7074C14.4104 39.6408 20.031 45.2614 26.9644 45.2614Z" fill="#FFCE56" stroke="#4C241D" stroke-width="5.38521" stroke-linecap="round" stroke-linejoin="round"/>
<path d="M26.9643 40.6963C31.3764 40.6963 34.9532 37.1195 34.9532 32.7074C34.9532 28.2952 31.3764 24.7184 26.9643 24.7184C22.5521 24.7184 18.9753 28.2952 18.9753 32.7074C18.9753 37.1195 22.5521 40.6963 26.9643 40.6963Z" stroke="#FC8C29" stroke-width="5.38521" stroke-linecap="round" stroke-linejoin="round"/>
<path d="M56.5873 3C56.5873 3 51.4002 8.03758 50.1322 8.63561C48.4289 9.43428 46.5707 9.84809 44.6895 9.84765H25.6838C24.0804 9.84769 22.4957 10.1915 21.0365 10.856C19.5772 11.5204 18.2774 12.49 17.2247 13.6994L3.81359 29.1066C3.5226 29.4415 3.30171 29.8314 3.16398 30.2531C3.02625 30.6749 2.97447 31.1199 3.01171 31.562C3.04895 32.0041 3.17445 32.4342 3.38079 32.827C3.58713 33.2197 3.87013 33.5671 4.21304 33.8486C4.8995 34.3761 5.75988 34.6247 6.62186 34.5447C7.48384 34.4647 8.28378 34.062 8.86145 33.4172L21.3516 20.0061C22.3543 18.9293 23.568 18.0705 24.9171 17.4832C26.2662 16.8959 27.7218 16.5927 29.1933 16.5926H35.3972C35.7869 16.5926 36.1727 16.6693 36.5328 16.8184C36.8928 16.9676 37.2199 17.1861 37.4954 17.4617C37.771 17.7372 37.9895 18.0643 38.1387 18.4243C38.2878 18.7844 38.3645 19.1702 38.3645 19.5599C38.3645 19.9496 38.2878 20.3354 38.1387 20.6954C37.9895 21.0554 37.771 21.3826 37.4954 21.6581C37.2199 21.9336 36.8928 22.1522 36.5328 22.3013C36.1727 22.4505 35.7869 22.5272 35.3972 22.5272H28.7482C27.7155 22.515 26.6913 22.7143 25.7386 23.1127C20.7935 25.2491 22.6401 30.4248 26.2054 30.4248H48.2423C50.1211 30.4248 51.9815 30.0547 53.7172 29.3356C55.453 28.6166 57.0301 27.5627 58.3585 26.2341L62.628 19.682L68 16.5926" fill="#E7D1C4"/>
<path d="M56.5873 3C56.5873 3 51.4002 8.03758 50.1322 8.63561C48.4289 9.43428 46.5707 9.84809 44.6895 9.84765H25.6838C24.0804 9.84769 22.4957 10.1915 21.0365 10.856C19.5772 11.5204 18.2774 12.49 17.2247 13.6994L3.81359 29.1066C3.5226 29.4415 3.30171 29.8314 3.16398 30.2531C3.02625 30.6749 2.97447 31.1199 3.01171 31.562C3.04895 32.0041 3.17445 32.4342 3.38079 32.827C3.58713 33.2197 3.87013 33.5671 4.21304 33.8486C4.8995 34.3761 5.75988 34.6247 6.62186 34.5447C7.48384 34.4647 8.28378 34.062 8.86145 33.4172L21.3516 20.0061C22.3543 18.9293 23.568 18.0705 24.9171 17.4832C26.2662 16.8959 27.7218 16.5927 29.1932 16.5926H35.3972C35.7869 16.5926 36.1727 16.6693 36.5328 16.8184C36.8928 16.9676 37.2199 17.1861 37.4954 17.4617C37.771 17.7372 37.9895 18.0643 38.1387 18.4243C38.2878 18.7844 38.3645 19.1702 38.3645 19.5599C38.3645 19.9496 38.2878 20.3354 38.1387 20.6954C37.9895 21.0554 37.771 21.3826 37.4954 21.6581C37.2199 21.9336 36.8928 22.1522 36.5328 22.3013C36.1727 22.4505 35.7869 22.5272 35.3972 22.5272H28.7482C27.7155 22.515 26.6913 22.7143 25.7386 23.1127C20.7935 25.2491 22.6401 30.4248 26.2054 30.4248H48.2423C50.1211 30.4248 51.9815 30.0547 53.7172 29.3356C55.453 28.6166 57.0301 27.5627 58.3585 26.2341L62.628 19.682L68 16.5926" stroke="#4C241D" stroke-width="5.38521" stroke-linecap="round" stroke-linejoin="round"/>
<path d="M4.13892 68.0869L15.5517 49.8265H53.2137L64.6265 68.0869" fill="#BF7E68"/>
<path d="M4.13892 68.0869L15.5517 49.8265H53.2137L64.6265 68.0869" stroke="#4C241D" stroke-width="5.38521" stroke-linecap="round" stroke-linejoin="round"/>
<path d="M44.654 56.6741H24.1111C23.1656 56.6741 22.3992 57.4405 22.3992 58.386C22.3992 59.3314 23.1656 60.0979 24.1111 60.0979H44.654C45.5995 60.0979 46.3659 59.3314 46.3659 58.386C46.3659 57.4405 45.5995 56.6741 44.654 56.6741Z" fill="#6B4F5B" stroke="#4C241D" stroke-width="5.38521" stroke-linecap="round" stroke-linejoin="round"/>
<path d="M60.0613 32.7074V37.2725" stroke="#4C241D" stroke-width="5.38521" stroke-linecap="round" stroke-linejoin="round"/>
<path d="M57.7788 34.9899H62.3439" stroke="#4C241D" stroke-width="5.38521" stroke-linecap="round" stroke-linejoin="round"/>
<path d="M8.70386 8.7406V13.3057" stroke="#4C241D" stroke-width="5.38521" stroke-linecap="round" stroke-linejoin="round"/>
<path d="M6.42139 11.0232H10.9865" stroke="#4C241D" stroke-width="5.38521" stroke-linecap="round" stroke-linejoin="round"/>
</svg>
