<?xml version="1.0" ?><svg fill="none" height="24" viewBox="0 0 24 24" width="24" xmlns="http://www.w3.org/2000/svg"><path d="M2.00002 21.154C2.00002 16.6893 6.07022 15.0002 10 15.0002C11.2829 15.0002 12.5807 15.1802 13.7471 15.578" stroke="black" stroke-linecap="round"/><path d="M14.3076 7.23664C14.3076 9.74643 14.0204 12.5384 9.99989 12.5384C5.9794 12.5384 5.6922 9.74643 5.6922 7.23664C5.6922 4.72685 7.62082 2.69226 9.99989 2.69226C12.379 2.69226 14.3076 4.72685 14.3076 7.23664Z" stroke="black"/><path d="M14.4213 18.3197L19.3957 12.4213L20.0459 12.2487L21.8155 13.7411L21.7551 14.4112L16.7808 20.3095L14.1798 20.9998L14.4213 18.3197Z" stroke="black"/><path d="M18.4635 13.3828L20.885 15.5353" stroke="black"/></svg>