<svg width="21" height="20" viewBox="0 0 21 20" fill="none" xmlns="http://www.w3.org/2000/svg">
<mask id="path-1-inside-1_344_242" fill="white">
<path d="M15.3984 12.8978H14.4252L14.0803 12.5812C15.5585 10.9398 16.3222 8.7004 15.9034 6.3203C15.3244 3.06086 12.4667 0.457994 9.0176 0.0593566C3.80705 -0.550323 -0.578179 3.62364 0.062361 8.58315C0.481175 11.866 3.21579 14.5862 6.64021 15.1372C9.14078 15.5359 11.4935 14.8089 13.2181 13.402L13.5506 13.7303V14.6565L18.7858 19.6395C19.2909 20.1202 20.1162 20.1202 20.6212 19.6395C21.1263 19.1588 21.1263 18.3732 20.6212 17.8925L15.3984 12.8978ZM8.00751 12.8978C4.94032 12.8978 2.46438 10.5412 2.46438 7.62174C2.46438 4.70231 4.94032 2.34566 8.00751 2.34566C11.0747 2.34566 13.5506 4.70231 13.5506 7.62174C13.5506 10.5412 11.0747 12.8978 8.00751 12.8978Z"/>
</mask>
<path d="M15.3984 12.8978H14.4252L14.0803 12.5812C15.5585 10.9398 16.3222 8.7004 15.9034 6.3203C15.3244 3.06086 12.4667 0.457994 9.0176 0.0593566C3.80705 -0.550323 -0.578179 3.62364 0.062361 8.58315C0.481175 11.866 3.21579 14.5862 6.64021 15.1372C9.14078 15.5359 11.4935 14.8089 13.2181 13.402L13.5506 13.7303V14.6565L18.7858 19.6395C19.2909 20.1202 20.1162 20.1202 20.6212 19.6395C21.1263 19.1588 21.1263 18.3732 20.6212 17.8925L15.3984 12.8978ZM8.00751 12.8978C4.94032 12.8978 2.46438 10.5412 2.46438 7.62174C2.46438 4.70231 4.94032 2.34566 8.00751 2.34566C11.0747 2.34566 13.5506 4.70231 13.5506 7.62174C13.5506 10.5412 11.0747 12.8978 8.00751 12.8978Z" fill="white"/>
<path d="M15.3984 12.8978L18.1629 10.0069L17.0031 8.89781H15.3984V12.8978ZM14.4252 12.8978L11.7205 15.8447L12.8678 16.8978H14.4252V12.8978ZM14.0803 12.5812L11.1079 9.90452L8.45644 12.8489L11.3756 15.5282L14.0803 12.5812ZM15.9034 6.3203L19.8429 5.62709L19.8418 5.62076L15.9034 6.3203ZM9.0176 0.0593566L8.55273 4.03226L8.55834 4.0329L9.0176 0.0593566ZM0.062361 8.58315L4.03021 8.07696L4.02941 8.07079L0.062361 8.58315ZM6.64021 15.1372L6.00471 19.0864L6.01049 19.0873L6.64021 15.1372ZM13.2181 13.402L16.028 10.5552L13.4721 8.03235L10.6894 10.3026L13.2181 13.402ZM13.5506 13.7303H17.5506V12.0581L16.3606 10.8835L13.5506 13.7303ZM13.5506 14.6565H9.55065V16.3715L10.7929 17.5539L13.5506 14.6565ZM20.6212 17.8925L17.8566 20.7834L17.8634 20.7899L20.6212 17.8925ZM15.3984 8.89781H14.4252V16.8978H15.3984V8.89781ZM17.13 9.95091L16.7851 9.63434L11.3756 15.5282L11.7205 15.8447L17.13 9.95091ZM17.0527 15.258C19.2902 12.7733 20.4911 9.31114 19.8429 5.62709L11.9639 7.01351C12.1533 8.08966 11.8268 9.10629 11.1079 9.90452L17.0527 15.258ZM19.8418 5.62076C18.9343 0.51195 14.5688 -3.32568 9.47685 -3.91419L8.55834 4.0329C10.3646 4.24166 11.7146 5.60977 11.965 7.01984L19.8418 5.62076ZM9.48246 -3.91354C1.95437 -4.79439 -4.91216 1.29493 -3.90469 9.09551L4.02941 8.07079C3.75581 5.95235 5.65973 3.69375 8.55273 4.03225L9.48246 -3.91354ZM-3.90548 9.08935C-3.24688 14.2518 0.951368 18.2732 6.00471 19.0864L7.27571 11.188C5.48021 10.8991 4.20923 9.48025 4.0302 8.07696L-3.90548 9.08935ZM6.01049 19.0873C9.67077 19.6709 13.1656 18.6071 15.7467 16.5013L10.6894 10.3026C9.82146 11.0107 8.61078 11.4009 7.26993 11.1871L6.01049 19.0873ZM10.4081 16.2487L10.7407 16.577L16.3606 10.8835L16.028 10.5552L10.4081 16.2487ZM9.55065 13.7303V14.6565H17.5506V13.7303H9.55065ZM10.7929 17.5539L16.0281 22.5368L21.5436 16.7421L16.3084 11.7591L10.7929 17.5539ZM16.0281 22.5368C18.0777 24.4877 21.3293 24.4877 23.379 22.5368L17.8634 16.7421C18.903 15.7526 20.504 15.7526 21.5436 16.7421L16.0281 22.5368ZM23.379 22.5368C25.5403 20.4796 25.5403 17.0524 23.379 14.9951L17.8634 20.7899C16.7122 19.6941 16.7122 17.8379 17.8634 16.7421L23.379 22.5368ZM23.3858 15.0016L18.1629 10.0069L12.6338 15.7887L17.8566 20.7834L23.3858 15.0016ZM8.00751 8.89781C6.96104 8.89781 6.46438 8.14821 6.46438 7.62174H-1.53562C-1.53562 12.9341 2.91959 16.8978 8.00751 16.8978V8.89781ZM6.46438 7.62174C6.46438 7.09526 6.96104 6.34566 8.00751 6.34566V-1.65434C2.91959 -1.65434 -1.53562 2.30935 -1.53562 7.62174H6.46438ZM8.00751 6.34566C9.05399 6.34566 9.55065 7.09526 9.55065 7.62174H17.5506C17.5506 2.30935 13.0954 -1.65434 8.00751 -1.65434V6.34566ZM9.55065 7.62174C9.55065 8.14821 9.05399 8.89781 8.00751 8.89781V16.8978C13.0954 16.8978 17.5506 12.9341 17.5506 7.62174H9.55065Z" fill="#C40D5F" mask="url(#path-1-inside-1_344_242)"/>
</svg>
