<svg width="30" height="30" viewBox="0 0 30 30" fill="none" xmlns="http://www.w3.org/2000/svg">
<path d="M15 30C13.5 30 12.375 28.75 11.5 27.75C11 27.25 10.5 26.625 10.25 26.5C9.875 26.375 9 26.375 8.375 26.375C7 26.5 5.5 26.5 4.5 25.5C3.5 24.5 3.5 22.875 3.625 21.625C3.625 20.875 3.75 20.125 3.5 19.75C3.375 19.375 2.75 18.875 2.25 18.5C1.25 17.625 0 16.5 0 15C0 13.5 1.25 12.375 2.25 11.5C2.75 11 3.375 10.5 3.5 10.25C3.625 9.875 3.625 9 3.625 8.375C3.5 7 3.5 5.5 4.5 4.5C5.5 3.5 7.125 3.5 8.375 3.625C9.125 3.625 9.875 3.75 10.25 3.5C10.625 3.375 11.125 2.75 11.5 2.25C12.375 1.25 13.5 0 15 0C16.5 0 17.625 1.25 18.5 2.25C19 2.75 19.5 3.375 19.75 3.5C20.125 3.625 21 3.625 21.625 3.625C23 3.5 24.5 3.5 25.5 4.5C26.5 5.5 26.5 7.125 26.375 8.375C26.375 9.125 26.25 9.875 26.5 10.25C26.625 10.625 27.25 11.125 27.75 11.5C28.75 12.375 30 13.5 30 15C30 16.5 28.75 17.625 27.75 18.5C27.25 19 26.625 19.5 26.5 19.75C26.375 20.125 26.375 21 26.375 21.625C26.5 23 26.5 24.5 25.5 25.5C24.5 26.5 22.875 26.5 21.625 26.375C20.875 26.375 20.125 26.25 19.75 26.5C19.375 26.625 18.875 27.25 18.5 27.75C17.625 28.75 16.5 30 15 30ZM9.375 23.875C10 23.875 10.625 24 11.25 24.125C12.125 24.5 12.875 25.25 13.5 26C14 26.625 14.75 27.375 15.125 27.375C15.5 27.375 16.25 26.625 16.75 26C17.375 25.25 18.125 24.5 19 24.125C19.875 23.75 21 23.75 22 23.875C22.75 23.875 23.75 24 24 23.75C24.25 23.5 24.125 22.5 24.125 21.75C24 20.75 24 19.625 24.375 18.75C24.75 17.875 25.5 17.125 26.25 16.5C26.75 16.125 27.5 15.375 27.5 15C27.5 14.625 26.75 13.875 26.125 13.375C25.375 12.75 24.625 12 24.25 11.125C23.875 10.25 23.875 9.125 24 8.125C24 7.375 24.125 6.375 23.875 6.125C23.625 5.875 22.625 6 21.875 6C20.875 6.125 19.75 6.125 18.875 5.75C18 5.375 17.25 4.625 16.625 3.875C16.125 3.25 15.375 2.5 15 2.5C14.625 2.5 13.875 3.25 13.375 3.875C12.75 4.625 12 5.375 11.125 5.75C10.25 6.125 9.125 6.125 8.125 6C7.375 6 6.375 5.875 6.125 6.125C5.875 6.375 6 7.375 6 8.125C6.125 9.125 6.125 10.25 5.75 11.125C5.375 12 4.625 12.75 3.875 13.375C3.25 13.875 2.5 14.625 2.5 15C2.5 15.375 3.25 16.125 3.875 16.625C4.625 17.25 5.375 18 5.75 18.875C6.125 19.75 6.125 20.875 6 21.875C6 22.625 5.875 23.625 6.125 23.875C6.375 24.125 7.375 24 8.125 24C8.5 24 8.875 23.875 9.375 23.875ZM13.75 20.5L9.125 15.875L10.875 14.125L13.75 17L20.375 10.375L22.125 12.125L13.75 20.5Z" fill="black"/>
</svg>
