<svg width="97" height="63" viewBox="0 0 97 63" fill="none" xmlns="http://www.w3.org/2000/svg">
<path d="M24.9925 53.6494L26.4643 54.5043C26.4643 54.5043 27.7862 53.623 28.6366 53.6494C29.4871 53.6759 31.4259 53.7111 30.9324 55.2798C30.4389 56.8485 30.0511 58.3203 28.6983 59.0738C27.3456 59.8273 22.5293 59.0738 22.5293 59.0738C22.5293 59.0738 23.274 53.9887 24.9925 53.6494Z" fill="#FFC9B0"/>
<path d="M26.4467 59.845C25.1185 59.824 23.7933 59.7106 22.4808 59.5057C22.3668 59.4872 22.2645 59.4247 22.1961 59.3316C22.1277 59.2384 22.0986 59.1221 22.1151 59.0078C22.2429 58.1265 22.9964 53.5966 24.9176 53.2177C25.022 53.195 25.1311 53.214 25.2217 53.2705L26.4643 53.9888C26.9049 53.7112 27.8832 53.1692 28.6675 53.2088H28.7292C29.4651 53.2353 30.6989 53.2794 31.2321 54.0329C31.3642 54.2339 31.4456 54.464 31.4694 54.7035C31.4932 54.9429 31.4587 55.1845 31.3687 55.4077L31.2629 55.747C30.7914 57.254 30.3464 58.6729 28.9275 59.4528C28.3767 59.7524 27.4425 59.845 26.4467 59.845ZM23.0449 58.6993C24.8824 58.9549 27.6584 59.1399 28.4869 58.6993C29.5929 58.0868 29.9674 56.8927 30.4037 55.5046L30.5094 55.1609C30.6372 54.7599 30.5094 54.6101 30.5094 54.5616C30.2274 54.1606 29.1875 54.121 28.694 54.121H28.6323C28.1079 54.0901 27.1825 54.5881 26.7243 54.9009C26.6542 54.9447 26.5733 54.9679 26.4907 54.9679C26.4081 54.9679 26.3272 54.9447 26.2572 54.9009L24.9352 54.1474C24.0936 54.5176 23.3665 56.8574 23.0625 58.6993H23.0449Z" fill="#093F68"/>
<path d="M24.9926 53.6494C23.8586 55.2967 23.0288 57.1339 22.5426 59.0738C20.0063 58.2365 17.6934 56.8337 15.7787 54.9714C15.0054 54.2743 14.3817 53.4272 13.9456 52.4817C13.0335 50.2785 14.5053 44.1491 17.5898 46.4537C18.9117 47.4275 19.5683 49.4898 20.7096 50.6927C21.9122 51.97 23.372 52.9777 24.9926 53.6494Z" fill="#68E1FD"/>
<path d="M22.5426 59.5144C22.4958 59.5208 22.4484 59.5208 22.4016 59.5144C19.8011 58.6465 17.4312 57.2002 15.4703 55.2842C14.6501 54.5467 13.9927 53.6463 13.5402 52.6403C12.8132 50.8778 13.4257 47.1896 15.0252 45.9469C15.5055 45.5724 16.5146 45.0921 17.8542 46.0924C18.6649 46.696 19.2334 47.6478 19.7798 48.5688C20.1313 49.2152 20.5509 49.8224 21.0312 50.3798C22.1892 51.6129 23.5968 52.5848 25.1601 53.2308C25.221 53.2557 25.2756 53.294 25.3199 53.3428C25.3641 53.3916 25.3968 53.4497 25.4156 53.5128C25.4352 53.5762 25.4403 53.6432 25.4304 53.7089C25.4204 53.7745 25.3958 53.837 25.3584 53.8918C24.2506 55.4963 23.4415 57.2876 22.9701 59.1795C22.9551 59.2381 22.9281 59.2931 22.891 59.3408C22.8539 59.3886 22.8073 59.4282 22.7541 59.4571C22.6896 59.4937 22.6168 59.5134 22.5426 59.5144ZM16.2855 46.3832C16.0219 46.3858 15.7677 46.4809 15.5672 46.652C14.3202 47.6214 13.7694 50.9042 14.351 52.3099C14.761 53.2044 15.3522 54.0042 16.0872 54.6585C17.8461 56.3645 19.9494 57.6746 22.2562 58.5009C22.7176 56.8519 23.4247 55.2818 24.3537 53.8433C22.8707 53.1528 21.5324 52.1868 20.4099 50.9967C19.8848 50.392 19.4254 49.7332 19.0395 49.0315C18.5372 48.181 18.0128 47.3041 17.343 46.8062C17.047 46.552 16.6751 46.4033 16.2855 46.3832Z" fill="#093F68"/>
<path d="M29.0376 54.5484C29.0639 55.601 28.7553 56.6348 28.1563 57.5007C28.0285 57.6902 27.839 57.8885 27.6099 57.8621C27.3807 57.8356 27.2309 57.5624 27.1692 57.3201C27.1011 56.7424 27.1552 56.1569 27.3279 55.6015C27.01 56.3291 26.4661 56.9348 25.7768 57.3289C25.6805 57.3927 25.5701 57.432 25.4551 57.4434C25.3981 57.4489 25.3407 57.4371 25.2904 57.4096C25.2402 57.3821 25.1993 57.3402 25.1731 57.2892" fill="#FFC9B0"/>
<path d="M27.6496 58.3071H27.5527C27.3414 58.2665 27.1488 58.1588 27.0035 58.0001C26.8582 57.8413 26.7681 57.6399 26.7463 57.4259C26.7463 57.3598 26.7243 57.2937 26.7155 57.2276C26.4979 57.4228 26.2601 57.5942 26.006 57.7387C25.849 57.8369 25.6707 57.8958 25.4861 57.9106C25.3361 57.9199 25.187 57.8825 25.0592 57.8036C24.9314 57.7247 24.8311 57.6081 24.7722 57.4699C24.7329 57.3748 24.7281 57.2689 24.7587 57.1706C24.7892 57.0723 24.8533 56.9878 24.9397 56.9318C25.026 56.8758 25.1293 56.8518 25.2315 56.8639C25.3338 56.8761 25.4285 56.9237 25.4993 56.9984L25.5698 56.9588C26.1745 56.6126 26.6519 56.0812 26.9314 55.4429C26.9745 55.3415 27.0541 55.2598 27.1544 55.2141C27.2547 55.1685 27.3686 55.1621 27.4734 55.1962C27.5781 55.2307 27.6661 55.3033 27.72 55.3996C27.7738 55.4958 27.7896 55.6088 27.7642 55.7161C27.6101 56.2117 27.5577 56.7333 27.61 57.2496C27.6201 57.3047 27.6379 57.3581 27.6629 57.4082C27.7118 57.367 27.7535 57.3178 27.7862 57.2628C28.3341 56.4736 28.618 55.531 28.597 54.5705C28.597 54.4536 28.6435 54.3415 28.7261 54.2589C28.8087 54.1762 28.9208 54.1298 29.0377 54.1298C29.1545 54.1298 29.2666 54.1762 29.3493 54.2589C29.4319 54.3415 29.4783 54.4536 29.4783 54.5705C29.5023 55.7194 29.163 56.8467 28.5089 57.7916C28.4186 57.9411 28.2931 58.0662 28.1433 58.1561C27.9935 58.2459 27.8241 58.2978 27.6496 58.3071Z" fill="#093F68"/>
<path d="M70.3922 55.2843L68.9205 56.1391C68.9205 56.1391 67.5985 55.2578 66.7481 55.2843C65.8976 55.3107 63.9588 55.346 64.4523 56.9147C64.9458 58.4834 65.3336 59.9551 66.6864 60.7042C68.0392 61.4533 72.8554 60.7042 72.8554 60.7042C72.8554 60.7042 72.1107 55.6192 70.3922 55.2843Z" fill="#FFC9B0"/>
<path d="M68.9383 61.4754C68.0987 61.5285 67.2577 61.3961 66.4751 61.0876C65.0518 60.3076 64.6111 58.8844 64.1396 57.3817L64.0427 57.0469C63.9532 56.8238 63.9185 56.5826 63.9415 56.3434C63.9645 56.1041 64.0445 55.8739 64.1749 55.672C64.7125 54.9141 65.9375 54.8701 66.6822 54.8436H66.7394C67.5194 54.8084 68.502 55.346 68.9427 55.6236L70.1809 54.9009C70.2743 54.8477 70.3841 54.8304 70.4893 54.8524C72.4194 55.2314 73.1641 59.7436 73.2919 60.6425C73.3084 60.7569 73.2793 60.8732 73.2109 60.9663C73.1425 61.0595 73.0402 61.122 72.9261 61.1405C71.6063 61.3449 70.2737 61.4568 68.9383 61.4754ZM66.7967 55.7249H66.6866C66.1886 55.7249 65.1531 55.7822 64.8711 56.1656C64.8359 56.2184 64.7301 56.3683 64.8711 56.7648L64.9769 57.1086C65.4175 58.4966 65.7832 59.6951 66.8937 60.3076C67.7221 60.7483 70.4982 60.5764 72.3357 60.3076C72.014 58.4657 71.2869 56.1259 70.4409 55.7337L69.1189 56.4917C69.0489 56.5354 68.968 56.5586 68.8854 56.5586C68.8028 56.5586 68.7219 56.5354 68.6519 56.4917C68.1007 56.0968 67.4659 55.8344 66.7967 55.7249Z" fill="#093F68"/>
<path d="M70.3923 55.2843C71.5252 56.9306 72.3548 58.7661 72.8423 60.7042C75.3787 59.869 77.6917 58.4676 79.6062 56.6062C80.3807 55.9083 81.0044 55.0596 81.4393 54.1121C82.3515 51.9089 80.8797 45.7839 77.7952 48.0885C76.4732 49.0623 75.8123 51.1202 74.671 52.3275C73.4711 53.6059 72.0124 54.6139 70.3923 55.2843Z" fill="#68E1FD"/>
<path d="M72.8556 61.1405C72.7817 61.1408 72.709 61.1226 72.6441 61.0876C72.5909 61.0586 72.5444 61.019 72.5072 60.9713C72.4701 60.9235 72.4431 60.8686 72.4281 60.81C71.9567 58.918 71.1476 57.1267 70.0398 55.5222C70.0024 55.4674 69.9778 55.4049 69.9678 55.3393C69.9579 55.2737 69.9629 55.2067 69.9826 55.1433C70.0014 55.0801 70.0341 55.0221 70.0783 54.9732C70.1226 54.9244 70.1772 54.8862 70.2381 54.8613C71.8004 54.2133 73.2076 53.2417 74.367 52.0103C74.846 51.4518 75.2654 50.8448 75.6184 50.1992C76.1648 49.2783 76.7333 48.3265 77.544 47.7184C78.866 46.7225 79.8927 47.1984 80.373 47.5774C81.9725 48.82 82.5762 52.517 81.858 54.2708C81.3971 55.2718 80.7409 56.1707 79.9279 56.9147C77.9634 58.8221 75.5921 60.2594 72.9922 61.1184C72.948 61.1325 72.9019 61.1399 72.8556 61.1405ZM71.0621 55.4737C71.9865 56.913 72.6891 58.4831 73.1464 60.1314C75.4532 59.305 77.5565 57.9949 79.3154 56.2889C80.049 55.6333 80.6399 54.8339 81.0516 53.9403C81.6332 52.5302 81.0824 49.2518 79.8354 48.278C79.3242 47.8814 78.747 47.9343 78.0728 48.4366C77.3986 48.939 76.8787 49.8115 76.3719 50.6399C75.989 51.3424 75.531 52.0014 75.0059 52.6051C73.8803 53.8031 72.5375 54.7765 71.0489 55.4737H71.0621Z" fill="#093F68"/>
<path d="M66.3428 56.1655C66.3194 57.2177 66.6278 58.2506 67.2241 59.1179C67.3519 59.3073 67.5413 59.5056 67.7705 59.4792C67.9996 59.4527 68.1494 59.1795 68.2111 58.9372C68.277 58.3595 68.223 57.7745 68.0525 57.2187C68.369 57.9471 68.9133 58.5532 69.6036 58.946C69.6999 59.0098 69.8103 59.0491 69.9252 59.0606C69.9823 59.066 70.0396 59.0542 70.0899 59.0267C70.1402 58.9993 70.1811 58.9573 70.2073 58.9063" fill="#FFC9B0"/>
<path d="M67.7352 59.9331C67.5538 59.9228 67.3779 59.867 67.2239 59.7707C67.0698 59.6744 66.9426 59.5408 66.8539 59.3823C66.2006 58.4389 65.8628 57.3128 65.8889 56.1656C65.8889 56.0487 65.9353 55.9366 66.0179 55.854C66.1006 55.7713 66.2126 55.7249 66.3295 55.7249C66.4464 55.7249 66.5585 55.7713 66.6411 55.854C66.7237 55.9366 66.7701 56.0487 66.7701 56.1656C66.7514 57.1265 67.0367 58.0688 67.5853 58.8579C67.6193 58.912 67.6609 58.961 67.7087 59.0033C67.7337 58.9532 67.7515 58.8998 67.7616 58.8447C67.8142 58.3284 67.7617 57.8068 67.6074 57.3112C67.5723 57.1996 67.583 57.0787 67.6372 56.975C67.6913 56.8712 67.7844 56.7933 67.896 56.7582C68.0076 56.7232 68.1286 56.7339 68.2323 56.788C68.336 56.8421 68.4139 56.9352 68.449 57.0469C68.7285 57.6851 69.2059 58.2166 69.8106 58.5627L69.8811 58.5979C69.9424 58.5344 70.0215 58.4908 70.1079 58.4727C70.1943 58.4547 70.2842 58.463 70.3658 58.4966C70.4738 58.5406 70.5599 58.6256 70.6053 58.7329C70.6507 58.8403 70.6518 58.9613 70.6082 59.0694C70.5493 59.2076 70.449 59.3242 70.3212 59.4031C70.1934 59.482 70.0443 59.5194 69.8943 59.5101C69.7097 59.4953 69.5314 59.4364 69.3744 59.3382C69.1203 59.1937 68.8825 59.0223 68.6649 58.8271C68.6649 58.8932 68.6649 58.9593 68.6341 59.0254C68.611 59.239 68.5203 59.4396 68.3753 59.5981C68.2303 59.7566 68.0384 59.8647 67.8277 59.9066L67.7352 59.9331Z" fill="#093F68"/>
<path d="M19.7136 62.5549L19.4756 58.2895L0.950894 53.8566L0.602783 62.5549H19.7136Z" fill="#093F68"/>
<path d="M19.7136 62.9956H0.589572C0.472705 62.9956 0.360625 62.9492 0.277988 62.8665C0.195351 62.7839 0.148926 62.6718 0.148926 62.5549L0.497036 53.8566C0.499695 53.7912 0.516895 53.7272 0.547384 53.6693C0.577872 53.6113 0.620885 53.5609 0.673295 53.5217C0.725058 53.4832 0.78464 53.4565 0.847836 53.4436C0.911033 53.4306 0.9763 53.4317 1.03903 53.4468L19.5682 57.8797C19.6595 57.9021 19.7412 57.953 19.8015 58.0252C19.8617 58.0973 19.8973 58.1869 19.9031 58.2807L20.141 62.5461C20.1454 62.6675 20.1028 62.7859 20.0221 62.8766C19.9386 62.9548 19.828 62.9975 19.7136 62.9956ZM1.06106 62.1143H19.2465L19.057 58.642L1.36951 54.403L1.06106 62.1143Z" fill="#093F68"/>
<path d="M58.2568 62.5549L58.1952 57.8841L56.437 57.8004V57.7166H54.6435L47.8973 57.3906L47.9325 57.7166H47.6373L38.723 54.5043L37.9607 62.5549H58.2568Z" fill="#093F68"/>
<path d="M58.2569 62.9956H37.9607C37.8993 62.9955 37.8385 62.9824 37.7823 62.9574C37.7262 62.9324 37.6759 62.8958 37.6347 62.8502C37.5935 62.8053 37.562 62.7524 37.5423 62.6947C37.5226 62.6371 37.515 62.576 37.5201 62.5153L38.2824 54.4647C38.2888 54.3978 38.3103 54.3332 38.3455 54.276C38.3806 54.2187 38.4284 54.1702 38.4851 54.1342C38.542 54.0976 38.6066 54.0745 38.6739 54.0669C38.7411 54.0593 38.8092 54.0672 38.8729 54.0901L47.5007 57.1967C47.519 57.1572 47.5444 57.1213 47.5756 57.0909C47.6196 57.0446 47.6731 57.0084 47.7325 56.9848C47.7918 56.9613 47.8556 56.9508 47.9193 56.9543L54.6656 57.276H56.4282C56.5306 57.2746 56.6303 57.3089 56.7102 57.373L58.2128 57.4479C58.3258 57.4535 58.4323 57.5024 58.5103 57.5845C58.5882 57.6665 58.6316 57.7754 58.6314 57.8885L58.6931 62.5594C58.6931 62.6762 58.6467 62.7883 58.5641 62.8709C58.4814 62.9536 58.3694 63 58.2525 63L58.2569 62.9956ZM38.4278 62.1143H57.8162L57.7634 58.3071L56.4194 58.241C56.3321 58.2378 56.2477 58.2086 56.177 58.1573H54.648L48.3556 57.8533C48.3334 57.9107 48.3022 57.9643 48.263 58.0119C48.2218 58.0575 48.1716 58.0941 48.1154 58.1191C48.0592 58.1441 47.9985 58.1572 47.937 58.1573H47.6417C47.5906 58.1572 47.5399 58.1483 47.4919 58.1309L39.1196 55.1124L38.4278 62.1143Z" fill="#093F68"/>
<path d="M43.4027 26.4617H54.9608C56.3632 26.4617 57.7082 27.0188 58.6998 28.0104C59.6915 29.0021 60.2486 30.347 60.2486 31.7494V54.522H38.1326V31.7318C38.1372 30.3355 38.6939 28.9977 39.6813 28.0104C40.6686 27.0231 42.0064 26.4663 43.4027 26.4617Z" fill="#68E1FD"/>
<path d="M60.2309 54.945H38.1325C38.0157 54.945 37.9036 54.8986 37.821 54.8159C37.7383 54.7333 37.6919 54.6212 37.6919 54.5043V31.7318C37.6919 30.2125 38.2954 28.7554 39.3697 27.6812C40.444 26.6069 41.901 26.0034 43.4203 26.0034H54.9784C56.4977 26.0034 57.9547 26.6069 59.029 27.6812C60.1033 28.7554 60.7068 30.2125 60.7068 31.7318V54.5043C60.707 54.5653 60.6946 54.6256 60.6703 54.6815C60.6459 54.7374 60.6103 54.7877 60.5656 54.8291C60.5208 54.8705 60.468 54.9022 60.4104 54.9221C60.3528 54.9421 60.2917 54.9499 60.2309 54.945ZM38.5732 54.0637H59.7903V31.7318C59.7903 30.4462 59.2796 29.2133 58.3706 28.3043C57.4616 27.3953 56.2287 26.8846 54.9432 26.8846H43.4027C42.1171 26.8846 40.8843 27.3953 39.9752 28.3043C39.0662 29.2133 38.5556 30.4462 38.5556 31.7318L38.5732 54.0637Z" fill="#093F68"/>
<path d="M47.6815 1.35801C48.0777 1.74452 48.3637 2.22976 48.5099 2.76367C50.3165 1.217 53.0617 1.05837 55.2429 2.01898C57.4241 2.97959 59.0722 4.8964 60.1341 7.02912C61.0859 8.93712 61.3062 11.1359 61.3283 13.2378C61.3503 15.3397 60.8171 17.3006 60.8656 19.4069C60.8656 20.1472 60.7951 20.2882 60.0636 20.3983C59.3726 20.4468 58.6791 20.4468 57.9882 20.3983H41.649C41.4287 20.3983 38.1238 20.5393 38.093 20.3983C37.9652 19.9577 38.1635 19.4289 38.1811 18.9883C38.2472 17.4592 37.7405 15.7539 37.6524 14.1984C37.5334 11.7925 37.0575 9.68622 38.0445 7.4213C39.0317 5.16346 40.575 3.19263 42.5303 1.6929C43.3306 0.996695 44.3262 0.564301 45.3813 0.454686C45.8056 0.443976 46.2277 0.518393 46.6228 0.673543C47.0179 0.828693 47.3778 1.06143 47.6815 1.35801Z" fill="#725858"/>
<path d="M38.9698 20.9139C37.7668 20.9139 37.7404 20.8081 37.6478 20.5173C37.5639 20.1504 37.5639 19.7693 37.6478 19.4025C37.6766 19.257 37.6957 19.1098 37.7051 18.9618C37.705 18.0742 37.6179 17.1887 37.4451 16.318C37.3159 15.6231 37.2276 14.9213 37.1807 14.2161C37.1543 13.727 37.1146 13.2511 37.075 12.784C36.9208 10.9112 36.7754 9.13984 37.6038 7.24065C38.6201 4.90812 40.2121 2.87187 42.2305 1.32278C42.9488 0.776379 44.0548 0.040501 45.3151 0.000842825C45.8009 -0.00969139 46.2839 0.0786177 46.7346 0.260412C47.1853 0.442207 47.5943 0.713695 47.9369 1.05839C48.2372 1.349 48.4833 1.69068 48.664 2.06747C49.6563 1.44236 50.7889 1.07468 51.9592 0.997739C53.1295 0.920796 54.3005 1.13702 55.3662 1.62683C57.4372 2.53456 59.2527 4.38967 60.4733 6.84407C61.5352 8.97239 61.6939 11.3827 61.7159 13.2422C61.7074 14.2747 61.6279 15.3053 61.478 16.3268C61.3315 17.3485 61.2564 18.3791 61.2532 19.4113C61.2532 20.2926 61.1078 20.698 60.0723 20.8478C59.5822 20.9028 59.0879 20.9117 58.5961 20.8742C58.3714 20.8742 58.1555 20.8742 57.9352 20.8742H41.6489H41.2655C40.2168 20.8698 39.4853 20.9139 38.9698 20.9139ZM38.5071 20.0238C38.9448 20.0238 39.8613 20.0091 41.2567 19.9797H41.6665H58.0057H58.7063C59.146 20.0202 59.5885 20.0202 60.0282 19.9797C60.3455 19.9357 60.416 19.896 60.4292 19.8828C60.4498 19.7366 60.4498 19.5883 60.4292 19.4421C60.4279 18.3685 60.5059 17.2963 60.6628 16.2342C60.8058 15.2579 60.8823 14.273 60.8919 13.2863C60.8699 11.5237 60.7245 9.23237 59.7418 7.26709C58.6138 4.99777 56.9525 3.30128 55.071 2.46405C52.903 1.50785 50.3869 1.78105 48.8006 3.13824C48.7437 3.18704 48.6754 3.22054 48.602 3.23558C48.5287 3.25063 48.4527 3.24672 48.3812 3.22423C48.3098 3.20173 48.2452 3.1614 48.1937 3.10703C48.1422 3.05266 48.1054 2.98606 48.0867 2.91351C47.9623 2.45619 47.7173 2.0407 47.3773 1.71055C47.1173 1.45304 46.8092 1.24929 46.4705 1.11092C46.1318 0.972559 45.7691 0.902301 45.4032 0.904165C44.3765 0.943823 43.4291 1.57835 42.8034 2.05425C40.9054 3.51255 39.4088 5.42906 38.4542 7.62401C37.7095 9.3205 37.8417 10.9068 38.0136 12.7399C38.0488 13.2158 38.0929 13.7049 38.1149 14.2029C38.1646 14.8752 38.2499 15.5445 38.3705 16.2078C38.5565 17.1377 38.6481 18.084 38.6437 19.0323C38.6313 19.2128 38.6078 19.3924 38.5732 19.5699C38.5358 19.7121 38.5064 19.8563 38.4851 20.0018L38.5071 20.0238Z" fill="#093F68"/>
<path d="M47.5757 27.8188H50.788V29.6696C50.788 30.0318 50.6441 30.3793 50.3879 30.6355C50.1317 30.8916 49.7843 31.0356 49.422 31.0356H48.9373C48.575 31.0356 48.2276 30.8916 47.9714 30.6355C47.7152 30.3793 47.5713 30.0318 47.5713 29.6696V27.8188H47.5757Z" fill="#FFC9B0"/>
<path d="M49.4264 31.4894H48.9417C48.4629 31.4882 48.004 31.2975 47.6655 30.959C47.3269 30.6204 47.1362 30.1616 47.135 29.6828V27.8365C47.135 27.7196 47.1814 27.6075 47.2641 27.5249C47.3467 27.4422 47.4588 27.3958 47.5757 27.3958H50.788C50.9048 27.3958 51.0169 27.4422 51.0995 27.5249C51.1822 27.6075 51.2286 27.7196 51.2286 27.8365V29.6828C51.2286 30.1611 51.0389 30.62 50.701 30.9587C50.3632 31.2974 49.9048 31.4882 49.4264 31.4894ZM48.0163 28.2771V29.6828C48.0163 29.9282 48.1138 30.1635 48.2873 30.3371C48.4609 30.5106 48.6962 30.6081 48.9417 30.6081H49.4264C49.671 30.607 49.9053 30.5089 50.0778 30.3355C50.2504 30.1621 50.3473 29.9274 50.3473 29.6828V28.2771H48.0163Z" fill="#093F68"/>
<path d="M40.5341 22.1609C42.1573 22.1609 43.4732 20.9575 43.4732 19.473C43.4732 17.9885 42.1573 16.785 40.5341 16.785C38.9109 16.785 37.595 17.9885 37.595 19.473C37.595 20.9575 38.9109 22.1609 40.5341 22.1609Z" fill="#FFC9B0"/>
<path d="M40.534 22.6016C38.6701 22.6016 37.1543 21.2003 37.1543 19.473C37.216 18.6188 37.5989 17.8197 38.2259 17.2363C38.853 16.653 39.6776 16.3287 40.534 16.3287C41.3905 16.3287 42.2151 16.653 42.8422 17.2363C43.4692 17.8197 43.8521 18.6188 43.9138 19.473C43.9138 21.2003 42.398 22.6016 40.534 22.6016ZM40.534 17.2213C40.0997 17.2673 39.688 17.4381 39.3486 17.7131C39.0093 17.9882 38.7569 18.3556 38.622 18.771C38.4871 19.1865 38.4754 19.6321 38.5884 20.054C38.7014 20.4759 38.9342 20.856 39.2587 21.1485C39.5831 21.4409 39.9853 21.633 40.4167 21.7017C40.848 21.7703 41.29 21.7126 41.6893 21.5353C42.0885 21.3581 42.4278 21.069 42.6662 20.703C42.9045 20.337 43.0318 19.9098 43.0325 19.473C42.9983 18.8436 42.7163 18.2534 42.2481 17.8314C41.7799 17.4095 41.1636 17.1901 40.534 17.2213Z" fill="#093F68"/>
<path d="M57.6664 22.1609C59.2896 22.1609 60.6055 20.9575 60.6055 19.473C60.6055 17.9885 59.2896 16.785 57.6664 16.785C56.0432 16.785 54.7273 17.9885 54.7273 19.473C54.7273 20.9575 56.0432 22.1609 57.6664 22.1609Z" fill="#FFC9B0"/>
<path d="M57.6664 22.6016C55.8024 22.6016 54.2866 21.2003 54.2866 19.473C54.3483 18.6188 54.7312 17.8197 55.3583 17.2363C55.9853 16.653 56.8099 16.3287 57.6664 16.3287C58.5228 16.3287 59.3475 16.653 59.9745 17.2363C60.6015 17.8197 60.9844 18.6188 61.0461 19.473C61.0461 21.2003 59.5303 22.6016 57.6664 22.6016ZM57.6664 17.2213C57.232 17.2673 56.8203 17.4381 56.481 17.7131C56.1416 17.9882 55.8893 18.3556 55.7543 18.771C55.6194 19.1865 55.6078 19.6321 55.7207 20.054C55.8337 20.4759 56.0665 20.856 56.391 21.1485C56.7154 21.4409 57.1177 21.633 57.549 21.7017C57.9804 21.7703 58.4224 21.7126 58.8216 21.5353C59.2208 21.3581 59.5601 21.069 59.7985 20.703C60.0369 20.337 60.1641 19.9098 60.1648 19.473C60.1307 18.8436 59.8486 18.2534 59.3804 17.8314C58.9122 17.4095 58.2959 17.1901 57.6664 17.2213Z" fill="#093F68"/>
<path d="M49.184 28.2374C47.7164 28.2323 46.2699 27.8866 44.9586 27.2275C43.6472 26.5683 42.5067 25.6138 41.627 24.4391C39.6441 21.7952 39.5515 18.5961 40.186 15.4587C40.6267 13.3216 41.8032 13.2555 43.8478 13.3789C43.9463 12.2414 44.2074 11.124 44.6233 10.0608C45.0691 11.0928 45.3487 12.1889 45.4518 13.3083C46.8971 13.3083 48.3468 13.3083 49.7921 13.37L50.3121 10.6513C50.8127 11.4334 51.0844 12.3401 51.0964 13.2687L56.1198 13.7887L56.6133 11.1448C57.0167 11.8458 57.1719 12.6624 57.054 13.4626C59.0765 12.502 58.6094 14.6303 58.6094 16.0051V18.8385C58.6077 20.0745 58.3625 21.2981 57.8879 22.4393C57.4133 23.5806 56.7186 24.6172 55.8433 25.49C54.9681 26.3628 53.9295 27.0546 52.7869 27.526C51.6443 27.9974 50.4201 28.2392 49.184 28.2374Z" fill="#FFC9B0"/>
<path d="M49.1839 28.6781C47.6485 28.6743 46.135 28.3142 44.7624 27.626C43.3899 26.9378 42.1958 25.9404 41.2743 24.7123C39.4765 22.2931 38.9742 19.2439 39.7541 15.3794C40.1948 13.0836 41.5696 12.8457 43.4511 12.925C43.5772 11.8879 43.8334 10.8709 44.2134 9.89775C44.2451 9.81564 44.3007 9.74488 44.3729 9.69462C44.4452 9.64436 44.5308 9.61688 44.6188 9.61574C44.7061 9.61494 44.7916 9.64006 44.8646 9.68791C44.9375 9.73576 44.9946 9.80419 45.0286 9.88454C45.4402 10.8322 45.7147 11.8338 45.8438 12.8589C47.038 12.8589 48.2365 12.8589 49.4307 12.9074L49.8713 10.5631C49.8884 10.4771 49.9307 10.3981 49.9929 10.3362C50.055 10.2744 50.1343 10.2325 50.2204 10.2159C50.3065 10.1994 50.3956 10.2089 50.4763 10.2433C50.557 10.2776 50.6256 10.3353 50.6733 10.4089C51.148 11.1483 51.4354 11.9923 51.5105 12.8677L55.7495 13.3084L56.1902 11.0434C56.2071 10.9547 56.2508 10.8734 56.3154 10.8103C56.38 10.7473 56.4624 10.7056 56.5515 10.6909C56.6381 10.6792 56.7262 10.6934 56.8047 10.7319C56.8831 10.7703 56.9484 10.8312 56.9922 10.9068C57.3256 11.4855 57.5089 12.1384 57.5254 12.806C57.6895 12.7602 57.8613 12.7483 58.0303 12.771C58.1992 12.7938 58.3617 12.8506 58.508 12.9382C59.1557 13.3789 59.1073 14.3659 59.0588 15.3265C59.0588 15.5556 59.0368 15.7672 59.0368 15.9875V18.8208C59.0356 21.434 57.9973 23.9399 56.1499 25.7881C54.3025 27.6363 51.7971 28.6757 49.1839 28.6781ZM42.8254 13.7843C41.4726 13.7843 40.9042 14.1147 40.6222 15.5468C39.8951 19.1513 40.3446 21.9759 41.9882 24.1791C43.1136 25.693 44.6875 26.8137 46.4863 27.3818C48.2851 27.95 50.2172 27.9367 52.008 27.3438C53.7988 26.7509 55.3571 25.6087 56.4615 24.0794C57.5659 22.5501 58.1602 20.7116 58.1599 18.8252V15.9919C58.1599 15.7716 58.1599 15.5512 58.1819 15.2869C58.2084 14.7449 58.2524 13.8327 58.0233 13.6785C57.9924 13.6785 57.8162 13.5727 57.2345 13.8459C57.1637 13.8781 57.0857 13.891 57.0083 13.8833C56.9309 13.8755 56.8569 13.8475 56.7939 13.8019C56.7094 13.7394 56.65 13.6487 56.6264 13.5463L56.5515 13.8636C56.5311 13.9718 56.471 14.0684 56.3829 14.1345C56.2948 14.2005 56.1852 14.2312 56.0756 14.2205L51.0523 13.7049C50.9432 13.694 50.8421 13.6428 50.7688 13.5613C50.6955 13.4798 50.6551 13.3739 50.6557 13.2643C50.651 12.8648 50.5932 12.4676 50.4838 12.0834L50.2239 13.4405C50.2042 13.5424 50.1492 13.634 50.0686 13.6993C49.988 13.7646 49.8869 13.7994 49.7832 13.7975C48.3511 13.7358 46.9014 13.7137 45.4737 13.7358C45.3634 13.7362 45.2569 13.6953 45.1753 13.621C45.0937 13.5468 45.043 13.4447 45.033 13.3348C44.9762 12.6761 44.8522 12.025 44.6629 11.3915C44.4867 12.0499 44.3673 12.7221 44.306 13.4009C44.297 13.5163 44.2429 13.6234 44.1555 13.6993C44.0681 13.7751 43.9544 13.8136 43.8389 13.8063C43.4467 13.7975 43.1206 13.7843 42.8254 13.7843Z" fill="#093F68"/>
<path d="M48.3025 22.4033C48.0073 22.4013 47.7126 22.3763 47.4213 22.3283C47.3044 22.3079 47.2004 22.2419 47.1323 22.1448C47.0641 22.0477 47.0373 21.9275 47.0577 21.8106C47.0782 21.6937 47.1442 21.5898 47.2413 21.5216C47.3384 21.4534 47.4586 21.4266 47.5755 21.447C47.9366 21.5069 48.3038 21.5202 48.6683 21.4867C48.518 20.8423 48.2776 20.2222 47.9544 19.6448C47.9277 19.5933 47.9114 19.5371 47.9065 19.4793C47.9015 19.4215 47.908 19.3633 47.9256 19.308C47.9433 19.2528 47.9716 19.2015 48.0091 19.1572C48.0465 19.1129 48.0923 19.0765 48.1439 19.0499C48.2469 18.997 48.3666 18.9868 48.4771 19.0214C48.5876 19.056 48.68 19.1328 48.7344 19.235C49.131 19.9885 49.7479 21.3457 49.4791 21.945C49.4392 22.0356 49.3785 22.1155 49.3019 22.1783C49.2254 22.2411 49.1351 22.2849 49.0384 22.3063C48.7979 22.3679 48.5508 22.4004 48.3025 22.4033Z" fill="#093F68"/>
<path d="M51.8764 20.1956C52.402 20.1956 52.8282 19.7694 52.8282 19.2438C52.8282 18.7181 52.402 18.292 51.8764 18.292C51.3507 18.292 50.9246 18.7181 50.9246 19.2438C50.9246 19.7694 51.3507 20.1956 51.8764 20.1956Z" fill="#093F68"/>
<path d="M43.4733 19.473C43.9989 19.473 44.4251 19.0469 44.4251 18.5212C44.4251 17.9955 43.9989 17.5694 43.4733 17.5694C42.9476 17.5694 42.5215 17.9955 42.5215 18.5212C42.5215 19.0469 42.9476 19.473 43.4733 19.473Z" fill="#093F68"/>
<path d="M51.4489 17.5517C51.2152 17.5517 50.991 17.4589 50.8258 17.2936C50.6605 17.1283 50.5676 16.9042 50.5676 16.6704C50.5676 16.4367 50.6605 16.2125 50.8258 16.0473C50.991 15.882 51.2152 15.7891 51.4489 15.7891L55.9788 15.6922H56.0008C56.2345 15.6922 56.4587 15.785 56.624 15.9503C56.7892 16.1156 56.8821 16.3398 56.8821 16.5735C56.8821 16.8072 56.7892 17.0314 56.624 17.1967C56.4587 17.3619 56.2345 17.4548 56.0008 17.4548L51.4665 17.5517H51.4489Z" fill="#093F68"/>
<path d="M46.8573 17.2918H46.8044L42.279 17.0406C42.0452 17.0277 41.8262 16.9226 41.67 16.7482C41.5138 16.5738 41.4333 16.3446 41.4462 16.1108C41.459 15.8771 41.5642 15.658 41.7386 15.5019C41.9129 15.3457 42.1422 15.2652 42.3759 15.278L46.9014 15.5248C47.1351 15.5306 47.3569 15.6291 47.5181 15.7985C47.6792 15.9679 47.7665 16.1944 47.7606 16.4281C47.7548 16.6618 47.6563 16.8837 47.4869 17.0448C47.3175 17.2059 47.091 17.2932 46.8573 17.2873V17.2918Z" fill="#093F68"/>
<path d="M48.241 25.0736C47.3344 25.0656 46.4497 24.7946 45.694 24.2936C45.6475 24.2592 45.6081 24.2159 45.5783 24.1663C45.5484 24.1167 45.5286 24.0616 45.52 24.0044C45.5114 23.9471 45.5142 23.8887 45.5282 23.8324C45.5422 23.7762 45.5671 23.7233 45.6015 23.6767C45.6359 23.6302 45.6792 23.5908 45.7288 23.5609C45.7785 23.5311 45.8335 23.5113 45.8908 23.5027C45.9481 23.4941 46.0065 23.4969 46.0627 23.5109C46.1189 23.5249 46.1718 23.5498 46.2184 23.5842C46.8842 24.0327 47.6822 24.2424 48.4824 24.1792C49.2826 24.116 50.0378 23.7835 50.6249 23.2361C50.7143 23.1607 50.83 23.1239 50.9465 23.1339C51.063 23.1438 51.1708 23.1996 51.2462 23.289C51.3216 23.3784 51.3583 23.4941 51.3484 23.6106C51.3385 23.7271 51.2827 23.8349 51.1933 23.9103C50.3819 24.6417 49.3332 25.0549 48.241 25.0736Z" fill="#093F68"/>
<path d="M95.7559 62.5549L95.117 54.306L74.4815 59.0518L74.3669 62.5549H95.7559Z" fill="#093F68"/>
<path d="M95.769 62.9956H74.3668C74.3075 62.9953 74.2488 62.9831 74.1942 62.9596C74.1397 62.9362 74.0905 62.9019 74.0496 62.859C74.009 62.8169 73.9772 62.7672 73.956 62.7127C73.9348 62.6582 73.9247 62.6001 73.9262 62.5417L74.0407 59.0386C74.044 58.9418 74.0789 58.8489 74.1403 58.774C74.2016 58.6991 74.2858 58.6466 74.38 58.6243L95.0199 53.8742C95.0813 53.8605 95.1449 53.8601 95.2065 53.873C95.268 53.8859 95.3261 53.9119 95.3768 53.9491C95.4284 53.9865 95.4712 54.0346 95.5024 54.0901C95.5336 54.1456 95.5524 54.2073 95.5575 54.2708L96.2096 62.5197C96.2147 62.5804 96.2072 62.6415 96.1875 62.6991C96.1677 62.7568 96.1363 62.8097 96.0951 62.8545C96.0535 62.8994 96.003 62.9351 95.9469 62.9594C95.8907 62.9836 95.8301 62.996 95.769 62.9956ZM74.8339 62.1143H95.2931L94.7158 54.8436L74.9088 59.3999L74.8339 62.1143Z" fill="#093F68"/>
<path d="M26.7772 10.1666C27.16 9.20269 27.3287 8.16713 27.2716 7.13161C27.2145 6.09609 26.9331 5.08534 26.4467 4.16937C25.5654 2.40679 23.8028 0.670642 21.9477 1.21704C22.0771 2.21353 22.3378 3.18849 22.7233 4.11649C21.084 2.79455 18.8059 2.56542 16.7128 2.79455C15.88 2.88709 14.9503 3.10301 14.5096 3.80363C14.069 4.50426 14.5625 5.73366 15.3909 5.56622C13.6103 4.7584 11.5918 4.64679 9.73301 5.25336C9.13814 5.45165 8.49039 5.82179 8.41107 6.4431C8.30091 7.28914 9.29236 7.81792 10.0899 8.09553C8.49039 7.29355 6.26513 8.56701 6.12412 10.3516L7.34911 10.6336C4.78456 13.2775 6.32241 17.4196 7.55622 20.3675C7.91755 21.2224 9.66691 25.3116 10.8478 25.4393C10.8787 25.4393 17.0433 26.0915 20.2292 22.2799C21.9698 20.2001 23.2124 17.684 24.3625 15.2296C25.2173 13.4714 26.1999 11.8322 26.7772 10.1666Z" fill="#725858"/>
<path d="M11.9671 25.9549C11.5816 25.9584 11.1962 25.9407 10.8126 25.902C9.82994 25.8006 8.60936 24.0028 7.15963 20.5613C6.16818 18.1995 4.37475 13.9208 6.55595 10.9288L6.03598 10.8054C5.93658 10.7831 5.84801 10.7269 5.78534 10.6466C5.72268 10.5662 5.68979 10.4667 5.69228 10.3648C5.74361 9.85275 5.92047 9.36127 6.20717 8.93391C6.49387 8.50655 6.88156 8.15651 7.33589 7.91481C7.63523 7.74419 7.95713 7.61661 8.29209 7.53586C8.16382 7.38431 8.06857 7.20767 8.01242 7.01723C7.95628 6.82679 7.94047 6.62673 7.96601 6.42983C8.05414 5.74683 8.62698 5.19603 9.58318 4.88317C10.9768 4.42411 12.4678 4.34651 13.9015 4.65844C13.8551 4.28954 13.9376 3.91595 14.1351 3.60089C14.7167 2.7196 15.858 2.48165 16.6644 2.39352C18.1626 2.23048 20.1631 2.25251 21.886 3.09855C21.7144 2.51297 21.5891 1.91478 21.5115 1.30953C21.4978 1.20532 21.5218 1.09963 21.5791 1.01156C21.6365 0.92348 21.7235 0.858811 21.8243 0.829226C23.8733 0.229948 25.821 1.99253 26.8389 4.00188C27.8568 6.01122 27.9934 8.01616 27.1914 10.3296C26.7565 11.4885 26.2427 12.6163 25.6535 13.7049C25.3583 14.2777 25.0543 14.8726 24.7722 15.4675C23.6133 17.9219 22.3399 20.4953 20.5773 22.5971C18.0921 25.5627 13.9676 25.9549 11.9671 25.9549ZM6.63526 10.0431L7.45927 10.2326C7.53494 10.2504 7.60455 10.2879 7.66105 10.3413C7.71754 10.3947 7.75891 10.4621 7.78094 10.5367C7.80487 10.6128 7.80768 10.694 7.78905 10.7716C7.77042 10.8492 7.73107 10.9203 7.67519 10.9773C5.47196 13.2422 6.51629 16.763 7.97042 20.2309C9.26592 23.3154 10.4292 24.9854 10.9051 25.0339C10.9624 25.0339 16.8979 25.6244 19.9031 22.0331C21.5952 20.0061 22.7937 17.5958 23.9747 15.0929C24.2655 14.476 24.5696 13.8723 24.856 13.2951C25.425 12.2413 25.9226 11.1504 26.3454 10.0299C26.707 9.12479 26.8671 8.15175 26.8146 7.17846C26.7621 6.20518 26.4982 5.25502 26.0413 4.39405C25.2525 2.84298 23.8645 1.45054 22.4324 1.59595C22.5689 2.41299 22.7996 3.21147 23.1198 3.97544C23.1567 4.06596 23.1624 4.16617 23.1361 4.2603C23.1098 4.35443 23.0529 4.43713 22.9744 4.4954C22.8974 4.55471 22.8029 4.58688 22.7056 4.58688C22.6084 4.58688 22.5139 4.55471 22.4368 4.4954C20.7624 3.14702 18.4181 3.08533 16.7481 3.2704C16.118 3.3365 15.2411 3.49954 14.8621 4.08119C14.7928 4.21476 14.7588 4.36385 14.7635 4.51427C14.7681 4.66468 14.8112 4.8114 14.8886 4.94045C15.1133 5.01977 15.3292 5.1079 15.5495 5.20925C15.6325 5.24719 15.7017 5.30997 15.7474 5.3889C15.7932 5.46783 15.8134 5.55902 15.8051 5.64989C15.7947 5.74296 15.7549 5.83029 15.6915 5.89923C15.6282 5.96816 15.5445 6.01511 15.4526 6.03326C15.2565 6.07083 15.0542 6.05865 14.864 5.99784C14.6739 5.93703 14.5021 5.82952 14.3642 5.68515C12.8955 5.21377 11.3162 5.21377 9.84757 5.68515C9.56115 5.78209 8.88256 6.05529 8.82527 6.50915C8.76799 6.96302 9.34083 7.32875 9.81673 7.54026C9.96899 7.58454 10.1166 7.64357 10.2574 7.71652C10.3568 7.76689 10.4335 7.8531 10.472 7.95776C10.5104 8.06243 10.5077 8.17778 10.4645 8.28055C10.4213 8.38303 10.341 8.46542 10.2397 8.51118C10.1384 8.55694 10.0235 8.56271 9.91807 8.52731C9.77119 8.47737 9.63459 8.42449 9.50827 8.36868C8.90621 8.2459 8.28004 8.34688 7.7471 8.65269C7.21415 8.9585 6.81101 9.44817 6.61323 10.0299L6.63526 10.0431Z" fill="#093F68"/>
<path d="M18.9867 29.674C16.594 29.837 14.3334 28.6781 12.5753 27.127C11.6675 26.3207 10.2002 25.3645 10.5659 23.9808C10.7555 23.3891 11.0903 22.8544 11.5397 22.4254C11.8129 22.1301 12.0641 21.8349 12.2932 21.5441C11.806 21.0378 11.489 20.392 11.3863 19.6969C11.2836 19.0018 11.4004 18.2919 11.7204 17.6664C11.9841 17.1613 12.4294 16.775 12.9667 16.5853C13.5039 16.3956 14.0931 16.4166 14.6155 16.6441C15.7788 17.0583 16.1842 18.5477 16.4309 19.6184C16.4491 19.7452 16.5025 19.8643 16.5851 19.9621C16.68 20.0411 16.797 20.0888 16.92 20.0987C17.2648 20.167 17.6196 20.167 17.9644 20.0987C18.0703 20.0849 18.1683 20.0351 18.242 19.9577C18.2725 19.9082 18.2928 19.8531 18.3019 19.7956C18.311 19.7381 18.3086 19.6794 18.2948 19.6228C18.1582 17.7457 17.7969 15.8421 18.2023 14.0046C18.8324 11.114 20.9872 11.8014 23.2697 11.255C23.5738 11.1801 26.6803 10.4354 26.6715 9.93304L27.3193 19.5127C27.6762 24.7652 24.3846 29.3082 18.9867 29.674Z" fill="#FFC9B0"/>
<path d="M18.5459 30.1277C16.4572 30.1277 14.2496 29.1936 12.2843 27.4574L11.8789 27.1137C10.9976 26.3646 9.755 25.3511 10.1428 23.8706C10.3481 23.2034 10.7161 22.5977 11.2135 22.108C11.3986 21.9112 11.5661 21.7217 11.7159 21.5396C11.2713 20.9618 10.999 20.2701 10.9304 19.5443C10.8618 18.8184 10.9996 18.088 11.3281 17.4371C11.6396 16.8357 12.1669 16.3743 12.8044 16.1455C13.4419 15.9166 14.1423 15.9373 14.7651 16.2033C16.2237 16.7233 16.6511 18.596 16.8626 19.495C16.8626 19.5699 16.8935 19.6051 16.8979 19.6227C16.9256 19.6189 16.9538 19.6189 16.9816 19.6227C17.2727 19.6785 17.5718 19.6785 17.8629 19.6227C17.832 19.1821 17.788 18.7415 17.7439 18.3405C17.5985 16.8687 17.4487 15.3485 17.7748 13.8591C18.3168 11.3739 19.978 11.1932 21.5863 11.0213C22.12 10.9741 22.6499 10.8916 23.1727 10.7746C24.8824 10.3692 26.006 9.95057 26.2572 9.74347C26.27 9.6266 26.3288 9.51963 26.4205 9.44608C26.5123 9.37253 26.6294 9.33844 26.7463 9.35129C26.8632 9.36415 26.9701 9.4229 27.0437 9.51463C27.1172 9.60636 27.1513 9.72354 27.1385 9.84041L27.7862 19.4156C28.1784 25.2322 24.5034 29.7179 19.0438 30.0925C18.8587 30.1233 18.7045 30.1277 18.5459 30.1277ZM13.6988 16.9084C13.3739 16.9015 13.0538 16.9874 12.7759 17.156C12.4981 17.3246 12.2741 17.5688 12.1301 17.8602C11.8497 18.3995 11.7457 19.0132 11.8327 19.6148C11.9196 20.2164 12.1932 20.7756 12.6148 21.2135C12.6936 21.2881 12.7422 21.3891 12.7511 21.4972C12.76 21.6054 12.7288 21.713 12.6633 21.7995C12.4385 22.0904 12.183 22.3944 11.8789 22.7249C11.4795 23.1027 11.1772 23.5713 10.9976 24.0909C10.7685 24.9722 11.4383 25.6067 12.4518 26.4395C12.5972 26.5629 12.7426 26.6819 12.8924 26.8009C14.8224 28.5018 16.9816 29.3698 18.9777 29.2332C23.9306 28.8983 27.2619 24.8268 26.9093 19.4994L26.3189 10.7481C25.3682 11.1473 24.3809 11.4528 23.371 11.6603C22.8119 11.7848 22.2452 11.8716 21.6745 11.9203C20.0882 12.0921 19.0306 12.2067 18.6296 14.075C18.3344 15.4278 18.471 16.8114 18.6296 18.2788C18.6737 18.7194 18.7177 19.138 18.7486 19.5699C18.7707 19.6762 18.7705 19.786 18.748 19.8923C18.7255 19.9986 18.6811 20.0991 18.6177 20.1873C18.5543 20.2755 18.4733 20.3497 18.3798 20.4049C18.2863 20.4602 18.1823 20.4955 18.0744 20.5084C17.6714 20.5877 17.2568 20.5877 16.8538 20.5084C16.6452 20.4869 16.449 20.3988 16.2942 20.2573C16.1502 20.101 16.0539 19.9068 16.0166 19.6977C15.739 18.5035 15.3644 17.3534 14.4831 17.0538C14.2263 16.9592 13.9549 16.91 13.6812 16.9084H13.6988Z" fill="#093F68"/>
<path d="M24.8251 15.7143H20.8593C20.6256 15.7143 20.4014 15.6215 20.2362 15.4562C20.0709 15.2909 19.978 15.0667 19.978 14.833C19.978 14.5993 20.0709 14.3751 20.2362 14.2098C20.4014 14.0446 20.6256 13.9517 20.8593 13.9517H24.8251C25.0589 13.9517 25.283 14.0446 25.4483 14.2098C25.6136 14.3751 25.7064 14.5993 25.7064 14.833C25.7064 15.0667 25.6136 15.2909 25.4483 15.4562C25.283 15.6215 25.0589 15.7143 24.8251 15.7143Z" fill="#093F68"/>
<path d="M23.9878 17.7677C24.4794 17.7677 24.8779 17.3692 24.8779 16.8776C24.8779 16.386 24.4794 15.9875 23.9878 15.9875C23.4962 15.9875 23.0977 16.386 23.0977 16.8776C23.0977 17.3692 23.4962 17.7677 23.9878 17.7677Z" fill="#093F68"/>
<path d="M26.3586 17.1111C26.3586 17.1111 28.9011 20.9404 28.3019 21.1342C27.6048 21.2663 26.8961 21.3269 26.1868 21.3149" fill="#FFC9B0"/>
<path d="M26.2705 21.7555H26.1823C26.0655 21.7555 25.9534 21.7091 25.8708 21.6265C25.7881 21.5438 25.7417 21.4318 25.7417 21.3149C25.7417 21.198 25.7881 21.0859 25.8708 21.0033C25.9534 20.9207 26.0655 20.8742 26.1823 20.8742H26.2661C26.8157 20.8774 27.3649 20.8421 27.9097 20.7685C27.3786 19.572 26.7354 18.4285 25.9885 17.3535C25.9265 17.2559 25.9053 17.1379 25.9296 17.0248C25.9538 16.9118 26.0215 16.8128 26.118 16.7492C26.2146 16.6856 26.3322 16.6625 26.4457 16.6849C26.5591 16.7073 26.6592 16.7733 26.7243 16.8688C28.2798 19.213 28.976 20.6715 28.791 21.1959C28.7633 21.279 28.7166 21.3546 28.6547 21.4165C28.5927 21.4785 28.5172 21.5251 28.434 21.5528C27.7229 21.7021 26.997 21.7701 26.2705 21.7555Z" fill="#093F68"/>
<path d="M24.7677 24.8797C24.6531 24.8797 21.9211 24.7563 20.6477 22.487C20.6187 22.4367 20.6 22.3811 20.5925 22.3235C20.5851 22.2659 20.589 22.2075 20.6042 22.1514C20.6193 22.0953 20.6453 22.0428 20.6808 21.9968C20.7162 21.9508 20.7604 21.9123 20.8107 21.8833C20.8611 21.8544 20.9166 21.8357 20.9742 21.8282C21.0318 21.8207 21.0903 21.8247 21.1463 21.8398C21.2024 21.855 21.2549 21.881 21.3009 21.9164C21.3469 21.9519 21.3855 21.996 21.4144 22.0464C22.4411 23.8795 24.7765 23.9896 24.7986 23.9896C24.9154 23.9896 25.0275 24.036 25.1101 24.1187C25.1928 24.2013 25.2392 24.3134 25.2392 24.4303C25.2406 24.4915 25.2292 24.5525 25.2056 24.6091C25.1821 24.6657 25.1471 24.7168 25.1027 24.7591C25.0583 24.8014 25.0056 24.834 24.9479 24.8548C24.8902 24.8755 24.8289 24.884 24.7677 24.8797Z" fill="#093F68"/>
<path d="M19.7401 58.0648L0.950928 53.8566L5.58212 33.8601C5.85419 32.7684 6.33873 31.7411 7.00806 30.8369C7.67738 29.9326 8.51836 29.1691 9.48292 28.59C10.4475 28.011 11.5167 27.6277 12.6295 27.4621C13.7423 27.2965 14.8768 27.3518 15.9681 27.6249L17.9555 28.1185C20.1589 28.67 22.0532 30.0737 23.2224 32.0211C24.3915 33.9686 24.7397 36.3005 24.1906 38.5045L19.7401 58.0648Z" fill="#68E1FD"/>
<path d="M19.74 58.5054C19.7078 58.5096 19.6752 58.5096 19.6431 58.5054L0.853923 54.284C0.797151 54.2716 0.743397 54.2481 0.695754 54.2148C0.64811 54.1816 0.607519 54.1392 0.576317 54.0902C0.545827 54.0406 0.525454 53.9855 0.516378 53.928C0.507303 53.8705 0.509703 53.8118 0.523438 53.7553L5.15022 33.7588C5.73211 31.4419 7.20841 29.4501 9.25582 28.2195C11.3032 26.989 13.7549 26.6199 16.0738 27.1931L18.0611 27.6911C20.3788 28.2707 22.3715 29.747 23.6011 31.7954C24.8306 33.8438 25.1964 36.2967 24.618 38.6147L20.1718 58.1661C20.1489 58.2632 20.0937 58.3496 20.0152 58.4113C19.9368 58.4729 19.8398 58.5061 19.74 58.5054ZM1.47083 53.5217L19.4007 57.5404L23.7499 38.4076C24.2714 36.3164 23.9422 34.1037 22.8344 32.255C21.7266 30.4062 19.9308 29.0723 17.8408 28.5459L15.8491 28.0524C13.759 27.5325 11.5481 27.8633 9.70167 28.972C7.85522 30.0807 6.52416 31.8767 6.00067 33.9659L1.47083 53.5217Z" fill="#093F68"/>
<path d="M42.0895 51.6004C43.6803 52.1955 45.2141 52.9329 46.6722 53.8036C48.8755 55.1652 50.8496 59.0165 49.5805 58.9636C48.3114 58.9107 45.3811 58.0823 44.2531 58.0074C43.5965 57.9501 39.9524 57.06 39.9524 57.06L42.0895 51.6004Z" fill="#FFC9B0"/>
<path d="M49.6071 59.3999H49.563C48.5237 59.2918 47.4931 59.1122 46.4785 58.8623C45.5708 58.6684 44.7159 58.4877 44.24 58.4481C43.5658 58.3864 40.2434 57.5668 39.8688 57.4919C39.8078 57.477 39.7507 57.4492 39.7013 57.4105C39.6519 57.3717 39.6114 57.3229 39.5824 57.2672C39.5527 57.2113 39.5354 57.1498 39.5316 57.0867C39.5278 57.0236 39.5376 56.9604 39.5604 56.9014L41.7019 51.4418C41.7443 51.3355 41.8264 51.2498 41.9308 51.2029C42.0353 51.156 42.1539 51.1516 42.2615 51.1907C43.8816 51.7906 45.4423 52.54 46.9235 53.4291C48.7787 54.566 50.7616 57.6505 50.3958 58.8447C50.3485 59.014 50.2442 59.1617 50.1004 59.2629C49.9567 59.3641 49.7824 59.4125 49.6071 59.3999ZM40.543 56.756C41.9839 57.0997 43.8831 57.536 44.2929 57.5712C45.0812 57.6784 45.8637 57.8255 46.6371 58.0119C47.5969 58.2414 48.5695 58.4135 49.5498 58.5274C49.6159 57.8753 48.2279 55.2843 46.4432 54.1915C45.1333 53.4089 43.7612 52.7354 42.3408 52.1777L40.543 56.756Z" fill="#093F68"/>
<path d="M76.8677 34.2061L76.3478 34.2173C76.0962 34.2227 75.8459 34.1784 75.6113 34.0871C75.3768 33.9958 75.1625 33.8592 74.9807 33.6851C74.7989 33.5109 74.6532 33.3027 74.5519 33.0723C74.4506 32.8418 74.3957 32.5937 74.3903 32.342L74.3316 29.6063L78.6886 29.5127L78.7468 32.2265C78.7552 32.4803 78.713 32.7332 78.6228 32.9706C78.5326 33.208 78.3961 33.4251 78.2213 33.6093C78.0464 33.7935 77.8367 33.9411 77.6044 34.0435C77.372 34.146 77.1216 34.2012 76.8677 34.2061Z" fill="#FFC9B0"/>
<path d="M76.3103 34.6532C75.6937 34.6522 75.1019 34.4101 74.6614 33.9786C74.2209 33.5472 73.9666 32.9606 73.9528 32.3442L73.8911 29.6078C73.8911 29.4909 73.9375 29.3788 74.0202 29.2962C74.1028 29.2135 74.2149 29.1671 74.3318 29.1671L78.6897 29.0746C78.8066 29.0746 78.9187 29.121 79.0013 29.2036C79.084 29.2863 79.1304 29.3984 79.1304 29.5152L79.1877 32.2516C79.1995 32.8766 78.9631 33.4807 78.5303 33.9317C78.0975 34.3827 77.5036 34.6437 76.8787 34.6576H76.3587L76.3103 34.6532ZM74.7812 30.0308L74.8341 32.3265C74.8422 32.7127 75.0012 33.0803 75.2772 33.3505C75.5532 33.6207 75.924 33.7719 76.3103 33.7719H76.3411H76.8611C77.0549 33.7679 77.2461 33.7257 77.4237 33.6478C77.6012 33.5699 77.7617 33.4577 77.8959 33.3178C78.0302 33.1778 78.1355 33.0128 78.2059 32.8322C78.2763 32.6515 78.3105 32.4587 78.3064 32.2649L78.2579 29.9691L74.7812 30.0308Z" fill="#093F68"/>
<path d="M76.1956 30.357C78.8175 31.0047 81.5583 30.1587 83.8056 28.7883C84.9733 28.0744 86.7887 27.3033 86.6521 25.7037C86.5564 25.0125 86.2916 24.3556 85.881 23.7913C85.0262 22.4694 84.0567 20.9492 83.6778 19.3849C83.2151 17.4416 84.0435 15.4543 83.2856 13.4935C81.9901 10.1622 77.3589 9.66424 74.3053 9.26766C73.5594 9.13116 72.795 9.13116 72.0491 9.26766C70.1588 9.70831 70.2866 11.96 69.8944 13.5243L68.9382 17.3888C67.5061 23.2141 70.291 28.8984 76.1956 30.357Z" fill="#FFC9B0"/>
<path d="M78.0418 31.0135C77.3843 31.0163 76.7288 30.9394 76.0898 30.7844C74.6847 30.4587 73.3646 29.8391 72.2162 28.9665C71.0679 28.0938 70.1173 26.9878 69.4272 25.7214C68.0889 23.125 67.7623 20.1241 68.5107 17.3006L69.4757 13.4053C69.5506 13.0924 69.6079 12.7443 69.6652 12.3786C69.8943 10.9862 70.1807 9.25001 71.9521 8.82699C72.7517 8.67917 73.5717 8.67917 74.3713 8.82699L74.6621 8.86224C77.7246 9.25883 82.3558 9.8581 83.7041 13.3304C84.1448 14.5025 84.0919 15.657 84.0258 16.7762C83.932 17.6105 83.9632 18.4541 84.1183 19.2791C84.4576 20.7068 85.3566 22.1565 86.2467 23.5225C86.6993 24.1484 86.9899 24.8765 87.0927 25.642C87.2337 27.3165 85.6738 28.2066 84.537 28.8588L84.0346 29.154C82.2448 30.3104 80.1719 30.9536 78.0418 31.0135ZM72.9656 9.59812C72.6945 9.59453 72.4238 9.62263 72.1592 9.68185C71.04 9.95064 70.7888 10.9818 70.5376 12.524C70.476 12.8897 70.4143 13.2687 70.3305 13.6124L69.3655 17.5121C68.6672 20.1296 68.9688 22.9133 70.2116 25.3204C70.8432 26.4789 71.7134 27.4903 72.7646 28.2878C73.8159 29.0853 75.0243 29.6509 76.3101 29.9471C78.5133 30.4891 81.0911 29.9471 83.5808 28.4269C83.7482 28.33 83.9245 28.2242 84.1095 28.1229C85.4006 27.3782 86.3128 26.7745 86.2246 25.7434C86.1293 25.1241 85.8876 24.5364 85.5196 24.0293C84.5854 22.6016 83.6425 21.0725 83.2679 19.5082C83.092 18.5997 83.0534 17.6698 83.1533 16.7498C83.215 15.679 83.2767 14.67 82.8889 13.6653C81.7345 10.6777 77.6012 10.1401 74.5563 9.75235L74.2655 9.71269C73.835 9.64792 73.4008 9.60966 72.9656 9.59812Z" fill="#093F68"/>
<path d="M70.3877 16.7057C70.3877 16.7057 66.8185 20.4601 67.4442 20.7905C68.192 21.0744 68.9673 21.2797 69.7576 21.403" fill="#FFC9B0"/>
<path d="M69.7709 21.8437H69.7004C68.8627 21.7169 68.0422 21.4952 67.2548 21.1827C67.175 21.142 67.1061 21.0827 67.054 21.0099C67.0018 20.937 66.9679 20.8528 66.9551 20.7641C66.8318 20.0106 68.5855 17.9792 70.0793 16.4061C70.1203 16.3648 70.169 16.332 70.2227 16.3096C70.2764 16.2873 70.334 16.2758 70.3922 16.2758C70.4503 16.2758 70.5079 16.2873 70.5616 16.3096C70.6153 16.332 70.6641 16.3648 70.705 16.4061C70.7871 16.4887 70.8332 16.6003 70.8332 16.7168C70.8332 16.8332 70.7871 16.9448 70.705 17.0274C69.4844 18.3097 68.1581 19.9048 67.8673 20.5129C68.5094 20.7211 69.1663 20.8802 69.8326 20.9888C69.9494 20.9987 70.0575 21.0547 70.1332 21.1444C70.2088 21.234 70.2457 21.35 70.2357 21.4669C70.2258 21.5838 70.1699 21.6919 70.0802 21.7675C69.9905 21.8431 69.8745 21.88 69.7576 21.8701L69.7709 21.8437Z" fill="#093F68"/>
<path d="M82.7788 16.9481C82.7788 16.9481 85.7884 15.8024 86.608 18.4331C87.4276 21.0638 85.1274 24.6374 81.1616 22.4518" fill="#FFC9B0"/>
<path d="M83.5014 23.5578C82.6019 23.5344 81.7228 23.2844 80.9457 22.8307C80.8434 22.7723 80.7686 22.6756 80.7376 22.562C80.7066 22.4484 80.722 22.3271 80.7804 22.2248C80.8389 22.1226 80.9355 22.0477 81.0492 22.0167C81.1628 21.9857 81.2841 22.0012 81.3863 22.0596C82.8713 22.8748 84.2241 22.888 85.1979 22.0948C85.6832 21.6637 86.0352 21.1028 86.2125 20.4782C86.3897 19.8537 86.3847 19.1915 86.1982 18.5697C86.1351 18.3109 86.0176 18.0686 85.8535 17.8589C85.6894 17.6492 85.4824 17.4769 85.2464 17.3535C84.2681 16.8776 82.9638 17.3535 82.9506 17.3535C82.8965 17.3741 82.8389 17.3837 82.781 17.382C82.7232 17.3803 82.6663 17.3672 82.6135 17.3435C82.5607 17.3197 82.5131 17.2858 82.4734 17.2437C82.4337 17.2016 82.4027 17.152 82.3822 17.0979C82.3616 17.0438 82.3519 16.9862 82.3537 16.9283C82.3554 16.8705 82.3685 16.8136 82.3922 16.7608C82.416 16.708 82.4499 16.6604 82.492 16.6207C82.5341 16.581 82.5837 16.55 82.6378 16.5295C82.7039 16.5295 84.3078 15.9082 85.6253 16.5295C85.9732 16.7054 86.2794 16.9537 86.5234 17.2577C86.7673 17.5617 86.9434 17.9144 87.0398 18.2921C87.2851 19.0832 87.294 19.9287 87.0654 20.7248C86.8368 21.5209 86.3807 22.233 85.7531 22.7734C85.1196 23.2942 84.3214 23.5722 83.5014 23.5578Z" fill="#093F68"/>
<path d="M71.9742 14.3306C71.7404 14.3335 71.5151 14.2435 71.3478 14.0803C71.1804 13.9171 71.0848 13.6941 71.0819 13.4603C71.0789 13.2266 71.169 13.0013 71.3322 12.8339C71.4954 12.6666 71.7184 12.5709 71.9521 12.568L76.4247 12.4579C76.6584 12.4514 76.8851 12.5381 77.055 12.6988C77.2248 12.8596 77.3238 13.0812 77.3302 13.3149C77.3366 13.5486 77.2499 13.7754 77.0892 13.9452C76.9285 14.115 76.7069 14.214 76.4732 14.2204L71.9962 14.335L71.9742 14.3306Z" fill="#093F68"/>
<path d="M73.0404 17.2609C73.6221 17.2609 74.0936 16.7894 74.0936 16.2078C74.0936 15.6262 73.6221 15.1547 73.0404 15.1547C72.4588 15.1547 71.9873 15.6262 71.9873 16.2078C71.9873 16.7894 72.4588 17.2609 73.0404 17.2609Z" fill="#093F68"/>
<path d="M71.8862 25.0957C71.5893 25.1004 71.293 25.0663 71.0049 24.9943C70.8982 24.9575 70.8097 24.8813 70.7576 24.7812C70.7055 24.6811 70.6937 24.5648 70.7248 24.4563C70.7559 24.3478 70.8274 24.2554 70.9246 24.1981C71.0218 24.1408 71.1373 24.1229 71.2473 24.1483C71.3486 24.1791 73.7237 24.8048 74.7372 21.8701C74.7544 21.8134 74.7828 21.7608 74.8208 21.7154C74.8588 21.6699 74.9056 21.6326 74.9583 21.6057C75.0111 21.5787 75.0687 21.5627 75.1278 21.5585C75.1868 21.5543 75.2462 21.5621 75.3022 21.5813C75.3582 21.6006 75.4097 21.6309 75.4537 21.6706C75.4978 21.7102 75.5333 21.7583 75.5583 21.812C75.5833 21.8657 75.5973 21.9239 75.5993 21.9831C75.6013 22.0423 75.5913 22.1013 75.57 22.1565C74.7019 24.6814 72.9482 25.0957 71.8862 25.0957Z" fill="#093F68"/>
<path d="M74.4816 59.0518L95.117 54.3061L89.2388 35.4905C88.7367 33.1945 87.3434 31.1918 85.3653 29.9227C83.3872 28.6535 80.9861 28.2217 78.6897 28.7222L76.6143 29.1628C74.3183 29.6649 72.3156 31.0582 71.0464 33.0363C69.7773 35.0144 69.3455 37.4155 69.846 39.7119L74.4816 59.0518Z" fill="#68E1FD"/>
<path d="M74.4814 59.4925C74.3808 59.4954 74.2821 59.4638 74.202 59.4028C74.1218 59.3419 74.0649 59.2553 74.0408 59.1576L69.4184 39.8308C68.8927 37.4189 69.3454 34.897 70.6771 32.8185C72.0088 30.7399 74.1107 29.2747 76.5216 28.7442L78.5927 28.3036C79.7865 28.0421 81.0201 28.0185 82.223 28.2341C83.426 28.4496 84.5746 28.9001 85.6034 29.5598C86.6322 30.2194 87.5209 31.0753 88.2187 32.0786C88.9166 33.0818 89.4099 34.2128 89.6705 35.4068L95.5399 54.1827C95.5578 54.2409 95.5634 54.3021 95.5564 54.3625C95.5494 54.423 95.53 54.4813 95.4994 54.5339C95.4688 54.5865 95.4276 54.6321 95.3784 54.668C95.3293 54.7039 95.2732 54.7292 95.2138 54.7423L74.5784 59.4925H74.4814ZM80.5976 28.9557C79.9871 28.9563 79.3784 29.0228 78.7821 29.154L76.7111 29.5946C74.5292 30.0735 72.6264 31.3985 71.4203 33.2787C70.2142 35.159 69.8032 37.4409 70.2777 39.6237L74.8075 58.5186L94.5528 53.9624L88.8244 35.6051C88.421 33.722 87.3853 32.0338 85.8895 30.8209C84.3936 29.6081 82.5277 28.9436 80.602 28.9381L80.5976 28.9557Z" fill="#093F68"/>
<path d="M73.1463 33.9482C73.1463 33.9482 61.3987 47.1236 53.1057 52.6404L55.353 58.2895C55.353 58.2895 71.9742 51.2216 76.2044 42.2456" fill="#68E1FD"/>
<path d="M55.3531 58.7433C55.2941 58.7422 55.2359 58.7303 55.1812 58.7081C55.1275 58.6854 55.0788 58.6523 55.038 58.6107C54.9971 58.5691 54.965 58.5198 54.9433 58.4657L52.696 52.8166C52.6591 52.7226 52.6556 52.6188 52.6861 52.5226C52.7166 52.4263 52.7792 52.3435 52.8634 52.2879C61.0154 46.8503 72.6925 33.7807 72.8159 33.6573C72.8533 33.6107 72.8999 33.5722 72.9527 33.5441C73.0055 33.516 73.0635 33.499 73.1231 33.494C73.1827 33.4891 73.2427 33.4963 73.2994 33.5153C73.3561 33.5342 73.4084 33.5646 73.453 33.6044C73.4976 33.6442 73.5337 33.6927 73.5589 33.7469C73.5842 33.8011 73.5982 33.8599 73.6 33.9197C73.6018 33.9795 73.5915 34.039 73.5695 34.0947C73.5476 34.1503 73.5146 34.2009 73.4724 34.2434C73.3579 34.3712 61.8791 47.2072 53.6434 52.821L55.5866 57.7122C58.1688 56.5489 72.0403 49.9965 75.7991 42.0561C75.824 42.0035 75.8592 41.9565 75.9025 41.9176C75.9457 41.8787 75.9963 41.8488 76.0512 41.8295C76.106 41.8102 76.1642 41.8021 76.2223 41.8054C76.2804 41.8087 76.3372 41.8235 76.3895 41.849C76.4945 41.8994 76.5752 41.9894 76.614 42.0992C76.6528 42.2091 76.6466 42.3298 76.5966 42.435C74.7988 46.2334 70.6964 50.1331 64.4128 54.0152C61.5568 55.7763 58.5861 57.3441 55.5205 58.7081C55.4676 58.7306 55.4107 58.7426 55.3531 58.7433Z" fill="#093F68"/>
<path d="M80.2275 4.36323C81.9372 4.58796 83.7042 4.21781 85.339 4.96691C90.543 7.3464 92.451 15.1018 93.2706 20.2044C93.6055 22.2755 93.7686 24.4214 93.231 26.4484C92.8154 27.904 92.081 29.2488 91.081 30.3852C90.0811 31.5216 88.8406 32.4211 87.4497 33.0184C84.6321 34.1929 81.4747 34.259 78.6103 33.2035C77.748 32.9349 76.9604 32.4687 76.3102 31.8419C74.9089 30.3702 74.953 28.0039 75.6845 26.1135C76.4159 24.2231 77.7202 22.5883 78.6588 20.8258C79.6186 18.9302 80.0306 16.8045 79.8486 14.6876C79.593 12.3565 78.086 11.8674 76.0149 11.6383C75.4641 11.5766 72.7277 9.57607 73.1199 8.99442C72.6308 9.71267 71.701 9.94621 70.8506 10.1313C70.7713 10.1313 70.6567 10.1313 70.6347 10.0652C70.6302 10.0419 70.6302 10.018 70.6347 9.99468C71.4278 5.99362 76.6098 3.89174 80.2275 4.36323Z" fill="#725858"/>
<path d="M82.8668 34.3889C81.3646 34.3876 79.8738 34.1267 78.4604 33.6177C77.5348 33.3225 76.6891 32.819 75.9883 32.146C74.3536 30.4275 74.5827 27.7395 75.2745 25.9505C75.7685 24.7855 76.3719 23.6701 77.0767 22.6192C77.4865 21.9626 77.9096 21.2973 78.2709 20.6011C79.1868 18.7815 79.5818 16.7441 79.4122 14.714C79.1963 12.7664 78.0902 12.2905 75.9663 12.0702C75.3979 12.0085 73.5868 10.7482 72.9171 9.82286C72.3155 10.199 71.6439 10.4493 70.943 10.5587C70.8704 10.5833 70.7936 10.5931 70.7172 10.5875C70.6408 10.5819 70.5663 10.561 70.4981 10.5261C70.4298 10.4911 70.3693 10.4429 70.3201 10.3842C70.2709 10.3254 70.234 10.2574 70.2115 10.1842C70.1896 10.0929 70.1896 9.99782 70.2115 9.90658C71.0928 5.50012 76.6714 3.47315 80.2891 3.94464C80.8656 4.00774 81.4453 4.03717 82.0252 4.03277C83.1797 4.03277 84.3739 4.03277 85.5283 4.58358C89.5999 6.44751 92.3539 11.6824 93.7111 20.1516C94.002 21.9582 94.2575 24.3201 93.6627 26.5762C93.2345 28.0988 92.4703 29.506 91.4263 30.6941C90.3823 31.8822 89.0851 32.8211 87.6302 33.4415C86.1245 34.0814 84.5029 34.404 82.8668 34.3889ZM73.534 9.13545C73.7102 9.62897 75.583 11.0787 76.0721 11.18C77.9448 11.3872 79.9806 11.841 80.2846 14.6171C80.4842 16.8206 80.0565 19.0356 79.0508 21.0064C78.6763 21.7247 78.2445 22.4165 77.8258 23.0863C77.1487 24.0893 76.5688 25.1546 76.0941 26.2678C75.4992 27.81 75.2789 30.119 76.6273 31.5555C77.2298 32.1357 77.9604 32.566 78.76 32.8114C81.5176 33.8316 84.5591 33.7702 87.2733 32.6395C88.6005 32.0634 89.7843 31.2015 90.7402 30.1154C91.6961 29.0292 92.4006 27.7456 92.8034 26.3559C93.3586 24.2584 93.1119 22.0155 92.8387 20.297C91.5167 12.1362 88.9434 7.1217 85.1582 5.38996C84.1756 4.94931 83.1224 4.94931 82.012 4.91847C81.3966 4.92308 80.7816 4.89071 80.1701 4.82153C77.0856 4.42054 72.2649 6.09499 71.1897 9.60694C71.7981 9.51884 72.3546 9.21553 72.7584 8.75209C72.8193 8.6631 72.9108 8.59954 73.0154 8.57344C73.12 8.54734 73.2306 8.56052 73.3262 8.61048C73.4217 8.66044 73.4957 8.7437 73.534 8.84451C73.5723 8.94532 73.5723 9.05667 73.534 9.15748V9.13545Z" fill="#093F68"/>
<path d="M53.4672 52.5875C51.5674 53.0089 49.6978 53.5565 47.871 54.2267C45.0464 55.2667 42.733 57.0072 44.2885 58.5539C45.064 59.3294 47.1747 58.1617 49.6159 58.0471C52.0571 57.9326 54.0224 58.5627 55.3663 58.3027L53.4672 52.5875Z" fill="#FFC9B0"/>
<path d="M45.0683 59.2501C44.867 59.2633 44.6651 59.2353 44.4749 59.1679C44.2848 59.1005 44.1104 58.995 43.9623 58.8579C43.7201 58.6468 43.538 58.3755 43.4343 58.0714C43.3306 57.7674 43.3091 57.4413 43.3718 57.1262C43.7464 55.4297 46.5269 54.2356 47.7078 53.8037C49.5553 53.1278 51.4454 52.5743 53.3657 52.1469C53.4717 52.1254 53.5819 52.1435 53.6753 52.198C53.7688 52.2524 53.8389 52.3393 53.8724 52.4421L55.7716 58.1705C55.7911 58.2301 55.7976 58.2932 55.7908 58.3555C55.7839 58.4178 55.7639 58.4779 55.732 58.5319C55.7006 58.5861 55.6581 58.633 55.6072 58.6694C55.5562 58.7059 55.4981 58.7311 55.4367 58.7434C54.564 58.847 53.6808 58.8232 52.8149 58.6729C51.7583 58.5244 50.6911 58.4654 49.6246 58.4966C48.7167 58.558 47.8167 58.7055 46.9367 58.9372C46.3269 59.1081 45.7005 59.213 45.0683 59.2501ZM53.163 53.0811C51.4166 53.4895 49.6964 54.0031 48.0118 54.6189C45.9056 55.3901 44.4206 56.4476 44.2355 57.3025C44.2064 57.4724 44.2233 57.647 44.2845 57.8082C44.3457 57.9694 44.449 58.1113 44.5836 58.219C44.87 58.5054 45.7734 58.2895 46.734 58.0604C47.6659 57.8133 48.6189 57.654 49.5805 57.5845C50.6955 57.5516 51.8113 57.612 52.9162 57.7651C53.5278 57.8527 54.1447 57.8984 54.7625 57.9017L53.163 53.0811Z" fill="#093F68"/>
<path d="M23.3005 32.1547C23.3005 32.1547 32.2456 45.1934 42.0896 51.6004L39.8071 57.2098C39.8071 57.2098 24.9309 52.4773 17.8188 39.8396" fill="#68E1FD"/>
<path d="M39.8071 57.6505C39.7608 57.6497 39.7148 57.6422 39.6705 57.6285C39.5207 57.5801 24.5519 52.7021 17.4355 40.0556C17.4066 40.0052 17.3878 39.9497 17.3804 39.8921C17.3729 39.8345 17.3769 39.776 17.392 39.72C17.4071 39.6639 17.4332 39.6114 17.4686 39.5654C17.5041 39.5194 17.5482 39.4808 17.5986 39.4519C17.6489 39.4229 17.7044 39.4042 17.762 39.3967C17.8196 39.3893 17.8781 39.3932 17.9342 39.4084C17.9902 39.4235 18.0427 39.4495 18.0887 39.485C18.1347 39.5204 18.1733 39.5646 18.2022 39.6149C24.5167 50.8338 37.1853 55.7998 39.5559 56.6459L41.5697 51.7591C31.8755 45.3125 23.0626 32.5249 22.9568 32.3971C22.8925 32.3007 22.8687 32.1828 22.8908 32.069C22.9128 31.9551 22.9787 31.8546 23.0744 31.7891C23.17 31.7236 23.2877 31.6984 23.4017 31.719C23.5158 31.7396 23.6172 31.8044 23.6839 31.8992C23.772 32.027 32.6951 44.9379 42.354 51.2215C42.4393 51.2773 42.5026 51.361 42.5331 51.4582C42.5636 51.5554 42.5595 51.6602 42.5215 51.7547L40.2477 57.3729C40.2133 57.46 40.1521 57.5339 40.0728 57.5838C39.9936 57.6337 39.9005 57.6571 39.8071 57.6505Z" fill="#093F68"/>
<path d="M45.0948 52.2526C46.1391 53.2132 46.4608 54.8965 47.0777 56.1479C47.3507 56.831 47.7464 57.4582 48.2454 57.9986C48.6301 58.3291 49.1138 58.5222 49.6203 58.5478C50.1269 58.5733 50.6275 58.4297 51.0435 58.1396C51.2917 58.0032 51.5091 57.8172 51.6824 57.5932C51.9088 57.2037 52.016 56.7564 51.9909 56.3066C52.0187 55.1785 51.8701 54.053 51.5502 52.9709C51.6593 53.0948 51.7957 53.1915 51.9487 53.2535C52.1017 53.3154 52.267 53.3409 52.4315 53.3278C52.4652 53.0884 52.443 52.8444 52.3665 52.6151C52.2901 52.3857 52.1615 52.1772 51.9909 52.0059C51.4991 51.3569 50.9175 50.7812 50.2636 50.2961C49.8758 50.045 49.0958 49.4149 48.6508 49.3091C47.1526 48.9522 46.2493 49.9921 44.804 50.4548C43.3586 50.9175 45.0463 52.1997 45.0948 52.2526Z" fill="#FFC9B0"/>
<path d="M49.6775 58.9901C49.0398 58.996 48.4244 58.7561 47.9589 58.3203C47.4556 57.7932 47.0537 57.1778 46.7736 56.5049L46.6943 56.3418C46.4916 55.9276 46.3197 55.4605 46.1523 55.0199C45.8086 54.1033 45.4517 53.156 44.8304 52.5699C44.0548 51.9119 43.7185 51.3243 43.8213 50.8073C43.8707 50.6078 43.9762 50.4267 44.1254 50.2853C44.2745 50.144 44.4611 50.0484 44.6629 50.0097C45.0934 49.8581 45.5105 49.6709 45.9099 49.4501C46.7339 49.0095 47.5888 48.5688 48.7433 48.8553C49.2486 49.0368 49.7184 49.3052 50.1313 49.6484L50.4927 49.8996C51.1896 50.4111 51.8086 51.0212 52.3301 51.7106C52.6518 52.1248 53.0616 52.755 52.8501 53.438C52.8243 53.5238 52.773 53.5998 52.7029 53.6557C52.6328 53.7116 52.5474 53.7448 52.4579 53.7508C52.3802 53.7574 52.3021 53.7574 52.2244 53.7508C52.4006 54.5894 52.4804 55.4454 52.4623 56.3022C52.4884 56.8391 52.3533 57.3716 52.0746 57.8312C51.8669 58.1069 51.6044 58.3364 51.3034 58.5054C50.8158 58.8122 50.2535 58.9798 49.6775 58.9901ZM48.0206 49.666C47.4071 49.718 46.8156 49.9192 46.2977 50.2521C45.8545 50.4979 45.3899 50.7029 44.9097 50.8646C44.729 50.9219 44.6717 50.9836 44.6673 50.9968C44.6629 51.01 44.7775 51.3978 45.3724 51.8781L45.4032 51.9089C46.2008 52.636 46.5973 53.6715 46.9807 54.6982C47.1285 55.1179 47.2976 55.5297 47.4874 55.932L47.5668 56.0951C47.7997 56.6709 48.1357 57.1996 48.5582 57.655C48.8734 57.919 49.2676 58.0706 49.6785 58.0858C50.0895 58.1009 50.4937 57.9788 50.8275 57.7387C51.0274 57.6316 51.2006 57.4811 51.3343 57.298C51.5092 56.9807 51.5888 56.6196 51.5634 56.2581C51.5827 55.1754 51.434 54.0962 51.1228 53.059C51.0932 52.9625 51.0977 52.8588 51.1354 52.7652C51.1731 52.6715 51.2419 52.5937 51.3301 52.5447C51.4183 52.4957 51.5207 52.4785 51.6201 52.4959C51.7195 52.5133 51.81 52.5643 51.8763 52.6404C51.7978 52.4841 51.7033 52.3365 51.5943 52.1998C51.1339 51.5887 50.5894 51.0457 49.9771 50.587C49.8713 50.5165 49.7303 50.4195 49.5805 50.3094C49.2489 50.0483 48.8863 49.8292 48.5009 49.6572C48.341 49.6434 48.18 49.6463 48.0206 49.666Z" fill="#093F68"/>
<path d="M56.7763 49.3576C56.6594 49.3576 56.5473 49.3112 56.4647 49.2286C56.382 49.1459 56.3356 49.0338 56.3356 48.917C56.4854 43.8231 56.6353 35.4993 56.3973 34.618C56.3403 34.5255 56.3195 34.4153 56.3388 34.3084C56.3582 34.2015 56.4163 34.1055 56.5021 34.0389C56.5878 33.9722 56.6952 33.9396 56.8035 33.9473C56.9119 33.9549 57.0136 34.0024 57.0891 34.0804C57.2522 34.2479 57.6399 34.6356 57.2169 48.9434C57.2102 49.0556 57.1608 49.161 57.0789 49.238C56.997 49.315 56.8887 49.3578 56.7763 49.3576Z" fill="#093F68"/>
<path d="M39.5161 28.0524C39.5161 28.0524 33.9155 35.7372 33.6379 41.6463C33.3603 47.5554 45.0947 52.2526 45.0947 52.2526C45.0947 52.2526 45.0198 51.5388 46.7912 50.2125C48.5626 48.8861 49.1663 49.3752 49.1663 49.3752C49.1663 49.3752 41.3712 46.1012 40.9042 41.6463C40.5208 37.9669 43.7507 32.1548 43.7507 32.1548" fill="#68E1FD"/>
<path d="M45.1344 52.7021C45.0677 52.7021 45.0018 52.6886 44.9405 52.6624C44.4514 52.4686 32.9329 47.7801 33.2105 41.6463C33.4793 35.6711 38.9389 28.1273 39.1592 27.81C39.1933 27.763 39.2363 27.7233 39.2858 27.6929C39.3352 27.6626 39.3902 27.6424 39.4475 27.6334C39.5049 27.6244 39.5634 27.6268 39.6198 27.6405C39.6762 27.6541 39.7293 27.6788 39.7761 27.7131C39.8231 27.7471 39.8629 27.7901 39.8932 27.8396C39.9235 27.8891 39.9437 27.9441 39.9527 28.0014C39.9618 28.0587 39.9593 28.1172 39.9457 28.1736C39.932 28.23 39.9073 28.2831 39.8731 28.33C39.807 28.4049 34.3474 35.9576 34.0786 41.6683C33.8538 46.5683 42.7152 50.7412 44.8127 51.6578C45.2408 50.9366 45.8269 50.3219 46.5268 49.8599C46.88 49.5867 47.2593 49.3491 47.6593 49.1505C45.3503 47.9652 40.8381 45.2199 40.4679 41.6948C40.0714 37.9184 43.2308 32.1856 43.3674 31.9433C43.3954 31.8926 43.4332 31.848 43.4785 31.8119C43.5238 31.7759 43.5758 31.7491 43.6314 31.7332C43.6871 31.7172 43.7453 31.7124 43.8029 31.7189C43.8604 31.7255 43.916 31.7433 43.9667 31.7714C44.0682 31.8288 44.1429 31.9241 44.1742 32.0365C44.2056 32.1488 44.1912 32.269 44.1341 32.3707C44.1033 32.428 40.9747 38.0991 41.3448 41.6022C41.737 45.3697 47.981 48.3573 49.1487 48.8861C49.2562 48.9133 49.3568 48.9628 49.4439 49.0315C49.5264 49.0982 49.582 49.1924 49.6006 49.2968C49.6193 49.4012 49.5996 49.5089 49.5452 49.5999C49.4908 49.6916 49.405 49.7604 49.3037 49.7936C49.2025 49.8268 49.0926 49.8222 48.9944 49.7806L48.8799 49.7321C48.6728 49.6969 48.0867 49.7894 47.0556 50.565C45.6015 51.6534 45.531 52.2438 45.531 52.2526C45.5389 52.3248 45.5271 52.3977 45.4968 52.4637C45.4666 52.5296 45.419 52.5861 45.3591 52.6272C45.2937 52.6747 45.2152 52.7009 45.1344 52.7021Z" fill="#093F68"/>
</svg>
